<?xml version="1.0" encoding="UTF-8"?>
<svg version="1.1" xmlns="http://www.w3.org/2000/svg" width="933" height="267">
<path d="M0 0 C5.52086345 4.00871519 10.11180485 8.68437611 14.125 14.1875 C14.58648437 13.54683594 15.04796875 12.90617187 15.5234375 12.24609375 C23.42963324 1.76179071 32.08440131 -4.32857644 45.125 -6.8125 C52.4740706 -7.49613447 59.78074544 -7.99394051 66.125 -3.8125 C67.75 -1.375 67.75 -1.375 68.125 1.1875 C66.93188477 3.33203125 66.93188477 3.33203125 65.125 5.1875 C63.01538086 5.578125 63.01538086 5.578125 60.58984375 5.4375 C59.70240479 5.40358154 58.81496582 5.36966309 57.90063477 5.3347168 C56.96405029 5.28613525 56.02746582 5.23755371 55.0625 5.1875 C45.356633 4.9351754 39.06511019 5.95742795 30.875 11.3125 C23.3422314 19.18766718 19.89823933 27.89933277 19.83447266 38.78759766 C19.82775543 39.51210617 19.82103821 40.23661469 19.81411743 40.983078 C19.79526083 43.35597759 19.79122053 45.72859287 19.7890625 48.1015625 C19.7826294 49.76109938 19.77590066 51.42063514 19.76889038 53.08016968 C19.75695104 56.54826489 19.75320645 60.0162607 19.75439453 63.484375 C19.75459832 67.92423597 19.72721988 72.36346117 19.69285011 76.80317116 C19.67060527 80.22615483 19.66655613 83.64898437 19.66761398 87.07203293 C19.66525732 88.70908183 19.65643006 90.34613494 19.64094925 91.98311234 C19.62132336 94.27125992 19.62711101 96.55802088 19.63916016 98.84619141 C19.63631012 100.14634186 19.63346008 101.44649231 19.63052368 102.78604126 C20.20613647 106.7456306 21.33075272 108.38120241 24.125 111.1875 C27.61134696 112.93067348 31.54860729 112.6894798 35.22265625 111.51953125 C37.89496138 109.64836893 38.24982739 107.77248349 39.1875 104.6875 C40.80912348 99.39808434 40.80912348 99.39808434 44.125 97.1875 C46.6875 97.375 46.6875 97.375 49.125 98.1875 C51.63086514 101.94629771 51.26999525 103.60389701 50.65625 107.9140625 C49.17967498 114.232935 44.25536468 118.58056239 39.125 122.1875 C32.47488222 125.23547065 26.85629109 124.56992325 20.125 122.1875 C20.03200301 132.94968725 19.9610849 143.71177768 19.91775131 154.47428608 C19.8969452 159.47266728 19.86875605 164.47077201 19.82324219 169.46899414 C19.77953429 174.29954403 19.75581052 179.12982926 19.74549103 183.96056175 C19.73814419 185.79642078 19.72379833 187.6322666 19.70207977 189.46801186 C19.56014577 201.97089683 20.00222154 213.19042114 28.21484375 223.3984375 C35.90730512 230.60323772 44.50151513 232.57495499 54.671875 232.4609375 C63.72532518 231.74403534 71.19190966 228.07580443 77.125 221.1875 C83.2382243 212.16249056 83.89979226 203.9036408 83.125 193.1875 C81.24275142 185.03467473 77.1227818 178.76821555 70.10546875 174.23828125 C67.96574145 172.9869342 65.80995354 171.76251756 63.63671875 170.5703125 C61.125 169.1875 61.125 169.1875 60.125 168.1875 C59.9375 165.25 59.9375 165.25 60.125 162.1875 C62.125 160.1875 62.125 160.1875 64.6875 159.75 C72.82479085 160.7856552 79.50565882 166.49648355 85.125 172.1875 C85.455 172.8475 85.785 173.5075 86.125 174.1875 C94.20620244 176.88123415 103.16388416 176.17526109 110.75 172.5 C118.81212757 167.8699428 124.89790583 161.29069319 127.4375 152.1875 C129.4206741 142.3860434 127.61200708 133.72863998 122.25 125.3125 C118.08904988 119.50960633 112.88041414 115.54850595 106.125 113.1875 C102.46155644 112.60270228 98.8305371 112.32373298 95.125 112.1875 C95.15980469 113.11691406 95.19460937 114.04632813 95.23046875 115.00390625 C95.50147721 127.3799592 95.50147721 127.3799592 92.125 133.1875 C91.125 134.1875 91.125 134.1875 88.1875 134.375 C85.125 134.1875 85.125 134.1875 83.125 132.1875 C82.96142578 130.19140625 82.96142578 130.19140625 83.0703125 127.75 C83.09794678 126.85949951 83.12558105 125.96899902 83.15405273 125.05151367 C83.18571533 124.10638916 83.21737793 123.16126465 83.25 122.1875 C83.42110945 110.69996587 81.8227984 103.38775818 73.875 94.7890625 C72.06498297 92.99879031 72.06498297 92.99879031 69.1875 91.625 C68.506875 91.150625 67.82625 90.67625 67.125 90.1875 C66.625 86.625 66.625 86.625 67.125 83.1875 C70.125 81.1875 70.125 81.1875 73.125 81.4375 C76.125 82.1875 76.125 82.1875 79.125 84.1875 C81.08326721 81.20347378 82.53076624 78.27687917 83.75 74.9375 C85.125 71.1875 85.125 71.1875 86.125 70.1875 C89.0625 70 89.0625 70 92.125 70.1875 C94.125 72.1875 94.125 72.1875 94.5 75.1875 C94.35097564 81.12363704 91.35402572 86.52855012 88.90625 91.82421875 C88.6484375 92.60410156 88.390625 93.38398437 88.125 94.1875 C89.42527975 96.88269712 89.42527975 96.88269712 91.125 99.1875 C91.125 99.8475 91.125 100.5075 91.125 101.1875 C92.5171875 100.878125 92.5171875 100.878125 93.9375 100.5625 C104.99050269 99.10641581 114.57857473 104.36919629 124.125 109.1875 C128.29339826 99.61024181 129.48299551 91.73347259 126.15625 81.70703125 C122.37769442 72.47533296 116.5587807 67.13344247 107.57421875 63.01953125 C101.56193533 61.56922959 95.41704772 62.1911859 89.27148438 62.44140625 C88.27052734 62.46332031 87.26957031 62.48523438 86.23828125 62.5078125 C84.87376831 62.55832764 84.87376831 62.55832764 83.48168945 62.60986328 C81.125 62.1875 81.125 62.1875 79.26635742 60.33935547 C78.125 58.1875 78.125 58.1875 78.75 55.4375 C79.70196506 53.18740077 80.70582981 50.95882155 81.75 48.75 C84.66366371 41.0979539 83.62257825 31.87781571 82.375 23.9375 C82.125 20.1875 82.125 20.1875 83.75 18 C86.125 17.1875 86.125 17.1875 88.75 17.875 C92.07048905 19.7100071 92.97171676 20.75319749 94.25 24.375 C96.18875028 32.76086429 96.24252088 42.14627551 93.125 50.1875 C93.77984375 50.14109375 94.4346875 50.0946875 95.109375 50.046875 C107.68034547 49.54971798 117.85684651 53.70237023 127.125 62.1875 C136.82713689 72.94953419 140.04268482 83.65628029 139.51953125 97.859375 C139.0555479 104.629113 136.87623811 110.36585069 133.31640625 116.1015625 C131.76313499 119.16381115 131.76313499 119.16381115 133.109375 122.2578125 C133.69203125 123.26585937 134.2746875 124.27390625 134.875 125.3125 C140.35313598 135.01028127 140.65555883 146.07226798 138.32421875 156.91015625 C134.60946026 167.62040496 126.88973812 176.4297339 117.125 182.1875 C110.77081431 185.17713956 104.93588139 187.34290633 97.875 187.25 C96.98296875 187.24097656 96.0909375 187.23195312 95.171875 187.22265625 C94.15867188 187.20525391 94.15867188 187.20525391 93.125 187.1875 C93.44726562 188.03054687 93.76953125 188.87359375 94.1015625 189.7421875 C97.10515341 199.85351262 95.60913322 210.76949748 91.125 220.1875 C84.5583414 231.7581187 75.0577457 239.67361954 62.25 243.5 C49.84330087 246.06090183 38.15472482 243.39711478 27.3125 237.0625 C21.7725637 233.33400915 17.93692908 228.61594914 14.125 223.1875 C13.44695312 223.98414063 12.76890625 224.78078125 12.0703125 225.6015625 C2.83100941 236.2217397 -6.3754923 242.93553747 -20.78125 244.50390625 C-33.0200494 245.00312044 -44.39773497 240.89055005 -53.875 233.1875 C-63.13647449 224.05267816 -67.4168004 213.38224583 -67.9609375 200.48046875 C-67.84690422 196.11092094 -67.10251985 192.3755089 -65.875 188.1875 C-67.21691406 188.04054687 -67.21691406 188.04054687 -68.5859375 187.890625 C-78.70275346 186.6395049 -88.07793331 185.34398002 -94.875 177.1875 C-93.97038758 174.06247527 -93.49345994 172.54889572 -90.62890625 170.875 C-87.01298255 169.97230132 -85.75576631 170.83885901 -82.5 172.5625 C-75.3300225 175.76686032 -68.63322355 176.58841351 -60.875 175.1875 C-57.5773733 173.34671954 -55.38046452 170.97628755 -52.875 168.1875 C-46.22624915 162.21252313 -46.22624915 162.21252313 -41.5 162.125 C-38.875 163.1875 -38.875 163.1875 -36.875 166.1875 C-37.02021591 169.36722758 -37.38724613 170.73055164 -39.73046875 172.92578125 C-40.50003906 173.44527344 -41.26960938 173.96476563 -42.0625 174.5 C-49.36274228 179.87362826 -54.10938888 186.18434249 -55.875 195.1875 C-57.03820669 204.85216797 -54.63497656 213.38515169 -49.3125 221.5 C-44.93281938 226.94379739 -37.76991122 230.97462843 -30.875 232.1875 C-20.24794064 233.07673268 -10.9857616 231.82033175 -2.5 225 C3.33751165 219.43818192 6.8959605 212.73164374 7.30200195 204.67578125 C7.32876529 203.28396159 7.34880918 201.89200173 7.36328125 200.5 C7.37538887 199.39072144 7.37538887 199.39072144 7.38774109 198.2590332 C7.40153698 196.69907955 7.41227913 195.13909628 7.42016602 193.57910156 C7.43172266 191.98461052 7.45223241 190.39015925 7.48168945 188.79589844 C7.52430137 186.48866572 7.54052109 184.18257695 7.55078125 181.875 C7.57704338 180.80922729 7.57704338 180.80922729 7.60383606 179.72192383 C7.58874166 176.27801045 7.38162122 174.51380331 5.22338867 171.76953125 C1.70024822 169.11334159 -0.46257017 168.84142707 -4.875 169.1875 C-8.16595012 170.68201405 -9.59184495 171.62686922 -11.23828125 174.88671875 C-11.55152344 175.87285156 -11.86476563 176.85898438 -12.1875 177.875 C-12.51363281 178.86886719 -12.83976562 179.86273438 -13.17578125 180.88671875 C-13.40652344 181.64597656 -13.63726562 182.40523437 -13.875 183.1875 C-19.24813433 184.50093284 -19.24813433 184.50093284 -21.75 183.25 C-23.55422852 179.94224772 -23.44987908 176.80471667 -22.875 173.1875 C-20.76231313 166.69427031 -17.08520973 162.51944806 -11.0625 159.18359375 C-5.60957418 156.73197589 -0.66556072 157.02508261 5.125 158.1875 C5.785 158.5175 6.445 158.8475 7.125 159.1875 C7.19447729 148.0436156 7.24779977 136.89978264 7.28043652 125.75572586 C7.29609967 120.58121344 7.3173499 115.40684908 7.35131836 110.23242188 C7.38388849 105.23982028 7.40184812 100.24736119 7.40963173 95.25466156 C7.41517945 93.34884141 7.42601265 91.44302915 7.44219017 89.53726959 C7.46393326 86.87005185 7.46696824 84.20342477 7.46557617 81.53613281 C7.476362 80.7463504 7.48714783 79.95656799 7.4982605 79.14285278 C7.48003512 75.92063341 7.34240301 73.58835663 5.79121399 70.72821045 C3.28568288 68.41140241 1.10056177 68.18478464 -2.25 67.8125 C-5.94750075 67.88856573 -5.94750075 67.88856573 -8.625 70.1875 C-10.59575334 72.81517113 -11.38744326 74.36295195 -12.375 77.375 C-13.37758195 80.36575293 -13.60828951 81.00285428 -16.3125 82.875 C-18.875 83.1875 -18.875 83.1875 -21.1875 82.3125 C-23.2716474 79.68801809 -23.44213225 77.6802282 -23.25390625 74.37109375 C-22.13287361 67.91070979 -18.75716322 63.35737487 -13.66015625 59.375 C-8.57513528 55.99240399 -3.77620152 55.81282054 2.125 56.1875 C3.80859925 56.81016829 5.47998956 57.46905523 7.125 58.1875 C7.22507438 54.24072029 7.29702516 50.29444795 7.34472656 46.34667969 C7.37435477 44.35585522 7.42522326 42.36538292 7.4765625 40.375 C7.58760687 29.38160716 5.78178814 21.0971516 -1.875 12.9453125 C-9.82985594 5.9537399 -17.73029455 4.70846296 -28.0390625 4.91015625 C-35.48302386 5.44836527 -41.79274431 8.19017955 -47.2734375 13.28125 C-53.8257549 21.08010583 -56.22618179 29.19505028 -56.171875 39.1875 C-55.70656755 43.88955426 -54.34833807 50.71416193 -50.875 54.1875 C-51.595 60.9075 -51.595 60.9075 -52.875 62.1875 C-54.51730033 62.20164313 -56.16023135 62.15133189 -57.80078125 62.07421875 C-75.7784191 61.3639857 -75.7784191 61.3639857 -90.99609375 70.015625 C-97.46714196 76.63465976 -100.07405141 84.02709984 -100.3125 93.1875 C-100.14676811 99.24665796 -99.05892344 104.54569777 -96.875 110.1875 C-96.17117187 109.71699219 -95.46734375 109.24648437 -94.7421875 108.76171875 C-86.07549481 103.29695038 -77.4453225 100.06570205 -67.08203125 100.2578125 C-65.49455078 100.22300781 -65.49455078 100.22300781 -63.875 100.1875 C-61.63310616 97.73542862 -60.84479805 96.27477025 -60.9375 92.9375 C-61.77826306 90.4712617 -62.7718103 88.23089596 -63.875 85.875 C-65.85977734 81.52012224 -66.79221471 77.98904698 -66.875 73.1875 C-65.75 71.1875 -65.75 71.1875 -63.875 70.1875 C-61.375 69.8125 -61.375 69.8125 -58.875 70.1875 C-56.13212177 72.36667895 -55.26988513 74.42924128 -54.3125 77.75 C-53.27321047 81.33989564 -53.27321047 81.33989564 -50.875 84.1875 C-50.318125 83.6925 -49.76125 83.1975 -49.1875 82.6875 C-46.42377578 80.89481402 -45.10677469 80.60743788 -41.875 81.1875 C-40 82.875 -40 82.875 -38.875 85.1875 C-38.80178731 88.04279482 -39.25220703 89.52487725 -41.21875 91.6171875 C-45.33368644 95.1875 -45.33368644 95.1875 -47.875 95.1875 C-48.29072266 96.0228125 -48.29072266 96.0228125 -48.71484375 96.875 C-49.51127621 98.46250173 -50.31644722 100.0456404 -51.12890625 101.625 C-51.56074219 102.470625 -51.99257812 103.31625 -52.4375 104.1875 C-52.87191406 105.033125 -53.30632812 105.87875 -53.75390625 106.75 C-56.75515096 113.27535435 -56.57926329 120.66618353 -55.1875 127.625 C-54.875 130.1875 -54.875 130.1875 -55.9375 132.5625 C-57.875 134.1875 -57.875 134.1875 -60.9375 134.5625 C-63.875 134.1875 -63.875 134.1875 -65.875 132.1875 C-67.88785211 125.50284298 -69.11532342 117.90847026 -66.875 111.1875 C-77.6753882 112.96162717 -87.20030607 115.21138335 -94.3125 124.0625 C-99.15672513 131.32883769 -100.21614836 137.51611426 -100.37109375 146.234375 C-100.9826057 149.81811945 -102.00283606 151.02151949 -104.875 153.1875 C-107.5 153.125 -107.5 153.125 -109.875 152.1875 C-113.34283467 146.985748 -112.51494549 140.45262332 -111.33984375 134.45703125 C-110.1621251 130.30605568 -108.6441447 126.65018615 -106.5625 122.875 C-105.0009299 119.98012552 -105.0009299 119.98012552 -105.375 116.75 C-105.87 115.904375 -106.365 115.05875 -106.875 114.1875 C-107.57877195 112.69506531 -108.26481985 111.19420424 -108.9375 109.6875 C-109.27910156 108.9553125 -109.62070313 108.223125 -109.97265625 107.46875 C-114.23509757 96.69270788 -112.23009172 84.56960721 -107.875 74.1875 C-106.15116216 70.91866629 -104.19720189 68.05776414 -101.875 65.1875 C-101.39675781 64.57390625 -100.91851562 63.9603125 -100.42578125 63.328125 C-91.42544556 53.08089142 -78.8625203 50.07880041 -65.875 49.1875 C-66.225625 47.99125 -66.57625 46.795 -66.9375 45.5625 C-69.56200913 33.44791801 -66.71747444 22.14479524 -60.375 11.72265625 C-46.45555761 -7.85155961 -20.27190478 -12.81596692 0 0 Z " fill="#F7F6F4" transform="translate(122.875,14.8125)"/>
<path d="M0 0 C9.9 0 19.8 0 30 0 C43.31337013 45.62737531 43.31337013 45.62737531 48 68 C48.16491943 67.27973633 48.32983887 66.55947266 48.49975586 65.81738281 C52.14879326 49.92556953 55.92859398 34.07071921 59.875 18.25 C60.17287918 17.0509906 60.17287918 17.0509906 60.47677612 15.82775879 C61.041701 13.55635887 61.61004058 11.28584469 62.1796875 9.015625 C62.34919418 8.33363037 62.51870087 7.65163574 62.69334412 6.94897461 C63.88467591 2.23064819 63.88467591 2.23064819 65 0 C74.57 0 84.14 0 94 0 C97.96 32.67 101.92 65.34 106 99 C103.54749907 100.22625047 102.15689565 100.03425355 99.4296875 99.87890625 C98.08583984 99.80639648 98.08583984 99.80639648 96.71484375 99.73242188 C95.77769531 99.67634766 94.84054687 99.62027344 93.875 99.5625 C92.93011719 99.51029297 91.98523438 99.45808594 91.01171875 99.40429688 C88.6741581 99.27443239 86.33700455 99.1394613 84 99 C82.15512138 81.19385639 80.47047955 63.38298263 79.00268555 45.54174805 C78.94289017 44.82358917 78.88309479 44.1054303 78.82148743 43.36550903 C78.65973551 41.42097743 78.50043014 39.47624275 78.34130859 37.53149414 C78.00003871 34.00040058 77.52930277 30.50740425 77 27 C76.58476074 28.83776001 76.58476074 28.83776001 76.16113281 30.71264648 C72.87852393 44.99210058 68.91572378 59.01876608 64.75 73.0625 C63.79410127 76.30372978 62.83971187 79.54540022 61.88580322 82.78721619 C61.29856295 84.78095635 60.70988943 86.7742751 60.11956787 88.7671051 C59.85549133 89.66001755 59.59141479 90.55292999 59.31933594 91.47290039 C59.08792908 92.25339249 58.85652222 93.03388458 58.61810303 93.83802795 C58.0343512 95.87984798 57.51505541 97.93977838 57 100 C51.06 100 45.12 100 39 100 C36.99159343 94.64424916 35.12021813 89.36808361 33.4765625 83.90625 C33.24850922 83.15645874 33.02045593 82.40666748 32.78549194 81.63415527 C32.06289139 79.2568349 31.34378135 76.87847757 30.625 74.5 C29.91557688 72.15987552 29.20539757 69.81998246 28.49476624 67.48022461 C28.02494655 65.93304701 27.55573702 64.385684 27.08714294 62.83813477 C25.94439914 59.07162963 24.78756179 55.31056676 23.59790039 51.55859375 C23.37302948 50.8481189 23.14815857 50.13764404 22.91647339 49.40563965 C22.30491486 47.47977898 21.68911691 45.55526596 21.07299805 43.63085938 C19.35819445 37.82822932 18.14181305 31.94114105 17 26 C16.0287411 29.37411161 15.71096163 32.64543114 15.44335938 36.14208984 C15.34655884 37.38372894 15.2497583 38.62536804 15.15002441 39.90463257 C15.07519585 40.89574099 15.07519585 40.89574099 14.99885559 41.9068718 C14.84199359 43.98419763 14.68098039 46.06116564 14.5189209 48.13809204 C14.17546793 52.55010452 13.83759373 56.96253598 13.5 61.375 C13.10849251 66.483234 12.71468184 71.59127879 12.31684875 76.6990242 C12.15896708 78.7383417 12.0043728 80.77789053 11.84997559 82.81747437 C11.75317505 84.06541779 11.65637451 85.31336121 11.55664062 86.59912109 C11.43125916 88.23982071 11.43125916 88.23982071 11.30334473 89.91366577 C11.00405225 92.95877101 10.50302442 95.98185349 10 99 C3.4 99.33 -3.2 99.66 -10 100 C-10.97869956 97.06390132 -11.04358505 95.91787916 -10.70265198 92.95674133 C-10.61147095 92.1364444 -10.52028992 91.31614746 -10.42634583 90.47099304 C-10.31989243 89.57475723 -10.21343903 88.67852142 -10.10375977 87.75512695 C-9.99661652 86.80859253 -9.88947327 85.86205811 -9.77908325 84.88684082 C-9.42279108 81.75323585 -9.0571324 78.62079801 -8.69140625 75.48828125 C-8.44277812 73.3178709 -8.19473355 71.14739362 -7.94725037 68.97685242 C-7.29383232 63.26004907 -6.63247255 57.54419128 -5.96948242 51.82849121 C-5.29453878 45.99753691 -4.62707178 40.16572749 -3.95898438 34.33398438 C-2.64665916 22.88846803 -1.32525716 11.44402619 0 0 Z " fill="#FEFEFE" transform="translate(318,82)"/>
<path d="M0 0 C0.66 0.66 1.32 1.32 2 2 C2.75023437 1.59007813 3.50046875 1.18015625 4.2734375 0.7578125 C14.56744578 -4.66145131 23.38310755 -7.36511583 35 -5 C40.41244116 -3.30631093 43.77856942 -0.71486304 46.9921875 3.92578125 C50.51906552 11.18458834 50.26291417 18.22372259 50.1953125 26.15234375 C50.1924826 27.40761368 50.18965271 28.66288361 50.18673706 29.95619202 C50.17747127 33.27214347 50.15954299 36.58781301 50.1373291 39.90368652 C50.11676595 43.29579245 50.10771309 46.68792766 50.09765625 50.08007812 C50.07565121 56.7201392 50.04114964 63.36003109 50 70 C43.07 70 36.14 70 29 70 C28.95101562 66.61621094 28.90203125 63.23242188 28.8515625 59.74609375 C28.79749892 56.4562552 28.7402125 53.16648738 28.68261719 49.87670898 C28.64441659 47.59648951 28.60954838 45.31621161 28.578125 43.03588867 C28.53228076 39.75157846 28.47431786 36.46766738 28.4140625 33.18359375 C28.40251129 32.16978134 28.39096008 31.15596893 28.37905884 30.11143494 C28.3840362 20.79931413 28.3840362 20.79931413 24 13 C21.83775203 12.6031584 21.83775203 12.6031584 19.375 12.625 C18.55773437 12.59664062 17.74046875 12.56828125 16.8984375 12.5390625 C12.96529131 13.01537377 12.96529131 13.01537377 6 17 C6 34.49 6 51.98 6 70 C3.54749907 71.22625047 2.15689565 71.03425355 -0.5703125 70.87890625 C-1.91416016 70.80639648 -1.91416016 70.80639648 -3.28515625 70.73242188 C-4.22230469 70.67634766 -5.15945313 70.62027344 -6.125 70.5625 C-7.06988281 70.51029297 -8.01476562 70.45808594 -8.98828125 70.40429688 C-11.3258419 70.27443239 -13.66299545 70.1394613 -16 70 C-16.01030746 69.38691986 -16.02061493 68.77383972 -16.03123474 68.1421814 C-16.13957236 61.7504468 -16.25414746 55.35884543 -16.37231445 48.96728516 C-16.41557604 46.58319898 -16.4572572 44.19908357 -16.49731445 41.81494141 C-16.5552298 38.38435057 -16.6188629 34.95390568 -16.68359375 31.5234375 C-16.70030624 30.46071625 -16.71701874 29.397995 -16.73423767 28.30307007 C-16.831176 23.44000153 -16.99313604 18.77991647 -18 14 C-20.80171617 13.06609461 -22.76889207 12.77455424 -25.6875 12.6875 C-26.49574219 12.65011719 -27.30398438 12.61273438 -28.13671875 12.57421875 C-32.04297222 13.00350065 -32.04297222 13.00350065 -39 17 C-39.33 34.49 -39.66 51.98 -40 70 C-50.395 70.495 -50.395 70.495 -61 71 C-61.9771115 67.091554 -62.12063644 64.03895161 -62.11352539 60.02832031 C-62.11367142 59.3352327 -62.11381744 58.64214508 -62.1139679 57.92805481 C-62.11327307 55.64471267 -62.10550085 53.36145283 -62.09765625 51.078125 C-62.09579054 49.49200485 -62.09436736 47.90588412 -62.09336853 46.31976318 C-62.08955538 42.15063885 -62.07973537 37.9815495 -62.06866455 33.81243896 C-62.05842457 29.55595371 -62.05386537 25.29946278 -62.04882812 21.04296875 C-62.03811202 12.69529647 -62.02105004 4.34765259 -62 -4 C-59.703463 -5.1482685 -58.41686833 -5.11561175 -55.8671875 -5.09765625 C-55.06152344 -5.09443359 -54.25585938 -5.09121094 -53.42578125 -5.08789062 C-52.58402344 -5.07951172 -51.74226562 -5.07113281 -50.875 -5.0625 C-50.02550781 -5.05798828 -49.17601562 -5.05347656 -48.30078125 -5.04882812 C-46.20049091 -5.03702874 -44.1002367 -5.01909306 -42 -5 C-41.67 -2.69 -41.34 -0.38 -41 2 C-40.24976563 1.59007813 -39.49953125 1.18015625 -38.7265625 0.7578125 C-25.98391973 -5.95053092 -12.2429474 -9.84958926 0 0 Z " fill="#FEFEFE" transform="translate(604,111)"/>
<path d="M0 0 C7.59 0 15.18 0 23 0 C28.40330579 18.31357595 33.80461206 36.62606703 39 55 C42.77802424 41.48637316 46.27682354 27.93955841 49.46386719 14.27490234 C50.58847927 9.50298279 51.79603992 4.75247401 53 0 C60.59 0 68.18 0 76 0 C75.36322091 3.18389544 74.73939782 6.06409858 73.79174805 9.12719727 C73.54982224 9.91283051 73.30789642 10.69846375 73.05863953 11.50790405 C72.66416374 12.77436264 72.66416374 12.77436264 72.26171875 14.06640625 C71.98483719 14.96130768 71.70795563 15.85620911 71.42268372 16.77822876 C70.51460292 19.70746778 69.60180459 22.63519792 68.6875 25.5625 C68.22005371 27.05990219 68.22005371 27.05990219 67.74316406 28.58755493 C65.51062018 35.72985298 63.26152545 42.8668277 61 50 C60.56158783 51.38282166 60.56158783 51.38282166 60.11431885 52.7935791 C58.51268835 57.83414252 56.89350398 62.86850586 55.24819946 67.89498901 C54.75560154 69.40432737 54.26702801 70.91498604 53.7828064 72.42703247 C49.90039424 84.52199805 45.31899973 97.36045773 33.8828125 104.28125 C28.3400663 107.12368395 23.74072263 108.16066127 17.5 108.125 C16.82324219 108.12886719 16.14648438 108.13273437 15.44921875 108.13671875 C12.35926233 108.13062416 9.95320689 107.9844023 7 107 C7 101.39 7 95.78 7 90 C9.000625 90.061875 11.00125 90.12375 13.0625 90.1875 C18.62505857 90.16331496 22.33241155 90.07862217 27 87 C29.78591362 83.42944615 31.46058728 79.23338498 33 75 C30.69 75 28.38 75 26 75 C22.40700264 66.67694503 19.27321899 58.27485968 16.375 49.6875 C15.51184702 47.15184283 14.64766895 44.6165709 13.78125 42.08203125 C13.55895721 41.43105469 13.33666443 40.78007812 13.1076355 40.109375 C11.41402038 35.1663794 9.67051702 30.24239817 7.90625 25.32421875 C7.65203278 24.61442368 7.39781555 23.9046286 7.13589478 23.17332458 C6.13745373 20.38741387 5.13838361 17.60178124 4.13006592 14.81942749 C3.43428407 12.89928828 2.74435059 10.97703289 2.0546875 9.0546875 C1.45889893 7.40702393 1.45889893 7.40702393 0.85107422 5.72607422 C0 3 0 3 0 0 Z " fill="#FEFEFE" transform="translate(844,106)"/>
<path d="M0 0 C0.84723633 -0.01015137 1.69447266 -0.02030273 2.56738281 -0.03076172 C11.51679712 0.09319622 19.1896973 2.83263168 25.6953125 9.2265625 C34.3311508 18.58506509 36.42222645 29.61123414 36.1875 42.06640625 C35.33891114 51.22055857 32.29933474 60.67018229 25.875 67.4375 C16.06147726 75.05723971 6.1204984 78.15659432 -6.2890625 77.19140625 C-15.33599157 75.89735184 -22.00350542 73.40920217 -28.125 66.4375 C-29.1459375 65.3546875 -29.1459375 65.3546875 -30.1875 64.25 C-37.70667907 53.33506265 -38.66728505 39.3055103 -36.6640625 26.48828125 C-34.10302466 16.8919218 -28.63545432 9.50985412 -20.125 4.4375 C-19.4546875 4.02371094 -18.784375 3.60992187 -18.09375 3.18359375 C-12.23559596 0.22357578 -6.43813001 0.05519739 0 0 Z M-11.125 19.4375 C-16.28417002 27.62101106 -16.11222897 38.24205519 -14.62890625 47.55078125 C-13.26032107 53.26481767 -11.81747565 56.82790335 -7.125 60.4375 C-3.66489036 62.16755482 0.08525327 61.77962991 3.875 61.4375 C7.73908829 60.06360194 9.22323154 58.17971539 11.125 54.6875 C12.81950425 50.93635954 13.58503096 47.5695588 13.875 43.4375 C13.9265625 42.77234375 13.978125 42.1071875 14.03125 41.421875 C14.36173426 33.76565628 13.26595042 24.89693467 8.375 18.75 C4.78835708 15.4323553 1.76711261 15.08025457 -3.0625 15.16015625 C-6.55004073 15.6291248 -8.5291149 17.14346201 -11.125 19.4375 Z " fill="#FEFEFE" transform="translate(718.125,105.5625)"/>
<path d="M0 0 C0.7734375 -0.020625 1.546875 -0.04125 2.34375 -0.0625 C10.98479309 -0.12049358 17.16153447 2.41440426 23.48828125 8.28125 C28.266537 13.62103027 30.37294522 19.88942015 30.3828125 26.98046875 C30.38410156 27.86541016 30.38539063 28.75035156 30.38671875 29.66210938 C30.38285156 30.57798828 30.37898437 31.49386719 30.375 32.4375 C30.37886719 33.36498047 30.38273438 34.29246094 30.38671875 35.24804688 C30.38542969 36.12912109 30.38414062 37.01019531 30.3828125 37.91796875 C30.38168457 38.72516357 30.38055664 39.5323584 30.37939453 40.36401367 C30.25 42.25 30.25 42.25 29.25 43.25 C27.86839885 43.3427833 26.48211962 43.36747043 25.09741211 43.36352539 C24.21657455 43.36344986 23.335737 43.36337433 22.4282074 43.36329651 C21.47092239 43.35813522 20.51363739 43.35297394 19.52734375 43.34765625 C18.55213272 43.3462413 17.57692169 43.34482635 16.57215881 43.34336853 C13.44390857 43.33775133 10.31572877 43.32519593 7.1875 43.3125 C5.07226666 43.30748722 2.95703219 43.30292393 0.84179688 43.29882812 C-4.35549296 43.28777631 -9.55274145 43.27102146 -14.75 43.25 C-14.13914556 45.03258262 -13.51884643 46.81193079 -12.89453125 48.58984375 C-12.55010986 49.58105225 -12.20568848 50.57226074 -11.85083008 51.59350586 C-9.9304626 56.22768606 -7.2249757 57.5909683 -2.8125 59.5625 C6.11697733 61.76562432 16.46967253 59.24552897 25.25 57.25 C26.24 61.21 27.23 65.17 28.25 69.25 C14.43858194 76.43950529 1.63310484 79.12955342 -13.75 75.25 C-23.22306468 71.8919619 -28.4631239 66.37073958 -32.890625 57.53515625 C-37.27241291 45.88358386 -37.75472328 31.56676031 -33.12890625 19.9296875 C-28.40297322 10.74557969 -22.25531947 5.24990928 -12.75 1.25 C-8.49070909 0.01207532 -4.40659978 0.02880131 0 0 Z M-9.875 17.75 C-12.55148961 21.31865281 -14.75 26.68046235 -14.75 31.25 C-6.5 31.25 1.75 31.25 10.25 31.25 C10.25 24.95865847 10.1741483 22.4933004 7.25 17.25 C4.671485 15.14647461 3.03945468 14.34868183 -0.25 13.9375 C-4.06121281 14.4139016 -6.7412501 15.53794125 -9.875 17.75 Z " fill="#FEFEFE" transform="translate(483.75,105.75)"/>
<path d="M0 0 C0 6.93 0 13.86 0 21 C-2.475 20.690625 -2.475 20.690625 -5 20.375 C-10.27280528 19.90058307 -14.00285884 20.27684788 -19 22 C-19.88518311 22.28915283 -20.77036621 22.57830566 -21.68237305 22.8762207 C-24.48783543 25.44703259 -24.40495477 26.23708377 -24.65942383 29.93041992 C-24.70063446 32.03009177 -24.71469102 34.13040648 -24.70703125 36.23046875 C-24.72215256 37.33602615 -24.73727386 38.44158356 -24.75285339 39.5806427 C-24.79588773 43.11646673 -24.80458398 46.65143966 -24.8125 50.1875 C-24.83563192 52.58270517 -24.86099451 54.97788992 -24.88867188 57.37304688 C-24.9516796 63.24870584 -24.98648895 69.12403009 -25 75 C-31.55913273 78.27956637 -39.67581618 75.36620919 -47 75 C-47 50.58 -47 26.16 -47 1 C-40.73 0.67 -34.46 0.34 -28 0 C-27.34 2.64 -26.68 5.28 -26 8 C-25.13375 7.236875 -24.2675 6.47375 -23.375 5.6875 C-15.69647855 -0.67521848 -9.82850446 -1.22856306 0 0 Z " fill="#FEFEFE" transform="translate(827,106)"/>
<path d="M0 0 C2.625 -0.1875 2.625 -0.1875 5 0 C4.67 0.66 4.34 1.32 4 2 C3.34 2 2.68 2 2 2 C1.97680182 12.8313403 1.95904681 23.66267466 1.94818783 34.49403477 C1.94297536 39.52378277 1.93590744 44.55351375 1.92456055 49.58325195 C1.91367351 54.43969324 1.90771084 59.29611817 1.90512276 64.15257072 C1.90327899 66.00286046 1.89967859 67.85314933 1.89426994 69.70343208 C1.88698231 72.3004358 1.88601231 74.89737242 1.88647461 77.49438477 C1.88287933 78.25467987 1.87928406 79.01497498 1.87557983 79.79830933 C1.88421771 84.29996967 2.26233052 88.55756407 3 93 C1 92 1 92 -0.11180115 88.92398071 C-1.12373627 85.0280806 -1.26229732 81.22421819 -1.21118164 77.21630859 C-1.2098674 76.47229294 -1.20855316 75.72827728 -1.2071991 74.9617157 C-1.20075401 72.52382249 -1.18034514 70.08625205 -1.16015625 67.6484375 C-1.15387866 65.94406474 -1.14864096 64.23968787 -1.14439392 62.53530884 C-1.13113378 58.062309 -1.10671968 53.58944746 -1.07904053 49.11651611 C-1.03580844 41.95099696 -1.00616072 34.78544036 -0.9829998 27.61983109 C-0.97280388 25.12210186 -0.95575371 22.62448602 -0.93800354 20.12680054 C-0.93117396 18.59283549 -0.92456526 17.05886944 -0.91821289 15.52490234 C-0.91147552 14.83386917 -0.90473816 14.142836 -0.89779663 13.43086243 C-0.89108962 10.57819808 -0.99847952 8.00671501 -1.63011169 5.2171936 C-2 3 -2 3 0 0 Z " fill="#FDFDFC" transform="translate(141,135)"/>
<path d="M0 0 C0.66 0.33 1.32 0.66 2 1 C2.13580541 18.02999894 1.82957037 34.98939479 1 52 C0.67 52 0.34 52 0 52 C-0.16798375 44.91600638 -0.32791879 37.8318643 -0.48217773 30.74755859 C-0.53564745 28.3360581 -0.59098054 25.92459819 -0.64819336 23.51318359 C-0.72996565 20.05314894 -0.80510219 16.59302512 -0.87890625 13.1328125 C-0.90594131 12.04944611 -0.93297638 10.96607971 -0.96083069 9.84988403 C-0.98092697 8.8489975 -1.00102325 7.84811096 -1.02172852 6.81689453 C-1.04171402 5.93309113 -1.06169952 5.04928772 -1.08229065 4.13870239 C-1 2 -1 2 0 0 Z " fill="#FDFDFC" transform="translate(131,85)"/>
<path d="M0 0 C0.66 0 1.32 0 2 0 C3.54518526 4.15659104 4.28821595 7.74193664 4.44921875 12.16796875 C4.49240234 13.30814453 4.53558594 14.44832031 4.58007812 15.62304688 C4.61552734 16.79931641 4.65097656 17.97558594 4.6875 19.1875 C4.73455078 20.37537109 4.78160156 21.56324219 4.83007812 22.78710938 C5.13484793 31.59545622 5.13484793 31.59545622 4 35 C4.33 35.66 4.66 36.32 5 37 C3.515 37.495 3.515 37.495 2 38 C1.97494385 36.99098633 1.9498877 35.98197266 1.92407227 34.94238281 C1.82977591 31.19258304 1.72960979 27.44295892 1.62768555 23.69335938 C1.58442069 22.07165643 1.54273972 20.44991042 1.50268555 18.828125 C1.44477786 16.49465973 1.38114302 14.16140957 1.31640625 11.828125 C1.29969376 11.10506165 1.28298126 10.38199829 1.26576233 9.63702393 C1.16797351 6.30109444 1.0154335 3.19445984 0 0 Z " fill="#FDFDFC" transform="translate(129,185)"/>
<path d="M0 0 C0.60328125 0.19464844 1.2065625 0.38929688 1.828125 0.58984375 C1.08046875 1.03714844 0.3328125 1.48445312 -0.4375 1.9453125 C-1.42234375 2.54988281 -2.4071875 3.15445313 -3.421875 3.77734375 C-4.39640625 4.36902344 -5.3709375 4.96070313 -6.375 5.5703125 C-9.25180422 7.64755801 -11.05076665 9.76941802 -13.171875 12.58984375 C-16.29687161 15.05694634 -17.4714208 15.65592434 -21.484375 15.27734375 C-22.37125 15.05046875 -23.258125 14.82359375 -24.171875 14.58984375 C-24.171875 14.25984375 -24.171875 13.92984375 -24.171875 13.58984375 C-22.439375 13.34234375 -22.439375 13.34234375 -20.671875 13.08984375 C-15.81276956 11.90511486 -13.38157714 9.15161134 -10.0546875 5.5703125 C-4.03467282 -0.76194361 -4.03467282 -0.76194361 0 0 Z " fill="#FCFCFB" transform="translate(80.171875,177.41015625)"/>
<path d="M0 0 C3.00775285 0.81459973 4.11821903 1.4080021 6 3.8125 C5.01 3.8125 4.02 3.8125 3 3.8125 C2.67 3.4825 2.34 3.1525 2 2.8125 C0.33382885 2.77186168 -1.33388095 2.769779 -3 2.8125 C-3 4.4625 -3 6.1125 -3 7.8125 C-0.525 8.8025 -0.525 8.8025 2 9.8125 C1.67 10.8025 1.34 11.7925 1 12.8125 C-2.465 10.8325 -2.465 10.8325 -6 8.8125 C-6.1875 5.4375 -6.1875 5.4375 -6 1.8125 C-3 -0.1875 -3 -0.1875 0 0 Z " fill="#FCFCFB" transform="translate(196,96.1875)"/>
<path d="M0 0 C2.47128202 0.9566253 3.72986449 1.45972898 4.9375 3.875 C5 6 5 6 4.125 8.3125 C1.47238508 10.41898832 0.59578394 10.11710734 -2.6875 9.75 C-4.12836665 9.52019671 -5.56732696 9.27632268 -7 9 C-6.67 8.34 -6.34 7.68 -6 7 C-4.02 7 -2.04 7 0 7 C1.00217064 3.41672247 1.00217064 3.41672247 0 0 Z " fill="#FCFCFB" transform="translate(186,10)"/>
<path d="M0 0 C0.33 0.66 0.66 1.32 1 2 C-8.9047619 15.96825397 -8.9047619 15.96825397 -15 18 C-13.39698514 14.56496816 -11.85801818 12.6196798 -8.75 10.375 C-5.21577006 7.32271051 -2.68322658 3.79893247 0 0 Z " fill="#FDFDFB" transform="translate(257,177)"/>
<path d="M0 0 C0.66 0.33 1.32 0.66 2 1 C0.68 3.64 -0.64 6.28 -2 9 C-2.66 9 -3.32 9 -4 9 C-4.33 10.32 -4.66 11.64 -5 13 C-5.66 13 -6.32 13 -7 13 C-5.58832253 7.73829306 -3.25149768 4.27828642 0 0 Z " fill="#FCFCFB" transform="translate(66,22)"/>
<path d="M0 0 C0 0.99 0 1.98 0 3 C-0.99 3 -1.98 3 -3 3 C-3.99 4.485 -3.99 4.485 -5 6 C-7.4375 7.75 -7.4375 7.75 -10 9 C-10.99 8.67 -11.98 8.34 -13 8 C-11.2126038 6.66094733 -9.41995047 5.32890934 -7.625 4 C-6.62726563 3.2575 -5.62953125 2.515 -4.6015625 1.75 C-2 0 -2 0 0 0 Z " fill="#FBFBFA" transform="translate(81,12)"/>
<path d="M0 0 C0.66 0.99 1.32 1.98 2 3 C1.01 3.495 1.01 3.495 0 4 C0 3.34 0 2.68 0 2 C-4.70842624 4.11326526 -4.70842624 4.11326526 -8 8 C-7.74438677 5.6568787 -7.40729228 3.32156597 -7 1 C-4.46578263 -0.26710868 -2.80561762 -0.28056176 0 0 Z " fill="#FCFAFB" transform="translate(64,85)"/>
<path d="M0 0 C2.87579981 4.31369972 4 7.80734761 4 13 C1.26734423 10.67273822 0.45596502 8.87066551 -0.25 5.375 C-0.42015625 4.57835938 -0.5903125 3.78171875 -0.765625 2.9609375 C-0.84296875 2.31382813 -0.9203125 1.66671875 -1 1 C-0.67 0.67 -0.34 0.34 0 0 Z " fill="#FBFBFB" transform="translate(58,92)"/>
<path d="M0 0 C3.2626876 3.08632611 6.02235218 5.93483504 8 10 C7.67 10.66 7.34 11.32 7 12 C4.58357208 9.10028649 2.63724353 6.39143304 1 3 C0.34 2.34 -0.32 1.68 -1 1 C-0.67 0.67 -0.34 0.34 0 0 Z " fill="#FCFBFB" transform="translate(251,80)"/>
<path d="M0 0 C0 3 0 3 -2.25 5.625 C-4.85730848 7.87676642 -5.80056111 8.38472329 -9 9 C-8.06725891 7.87105124 -7.12859878 6.74699124 -6.1875 5.625 C-5.66542969 4.99851562 -5.14335937 4.37203125 -4.60546875 3.7265625 C-3 2 -3 2 0 0 Z " fill="#FCFCFC" transform="translate(30,72)"/>
<path d="M0 0 C0.66 0.66 1.32 1.32 2 2 C1.875 5 1.875 5 1 8 C-0.98 8.99 -0.98 8.99 -3 10 C-2.01 6.7 -1.02 3.4 0 0 Z " fill="#FDFCFB" transform="translate(130,223)"/>
<path d="M0 0 C0.66 0.33 1.32 0.66 2 1 C0.35 4.3 -1.3 7.6 -3 11 C-3.66 11 -4.32 11 -5 11 C-4.46884894 6.48521602 -2.63379708 3.65333143 0 0 Z " fill="#FDFCFA" transform="translate(71,195)"/>
<path d="M0 0 C0.99 0.495 0.99 0.495 2 1 C2.185625 1.9590625 2.185625 1.9590625 2.375 2.9375 C2.80939427 5.19851273 2.80939427 5.19851273 5.0625 6.25 C5.701875 6.4975 6.34125 6.745 7 7 C4.625 7.625 4.625 7.625 2 8 C0 6 0 6 -0.125 2.875 C-0.08375 1.92625 -0.0425 0.9775 0 0 Z " fill="#FBFBFB" transform="translate(206,141)"/>
<path d="M0 0 C7.38461538 -0.36923077 7.38461538 -0.36923077 10.5 1.5 C10.995 1.995 11.49 2.49 12 3 C11.67 3.66 11.34 4.32 11 5 C10.484375 4.690625 9.96875 4.38125 9.4375 4.0625 C6.33334577 2.70940713 3.34884993 2.38640576 0 2 C0 1.34 0 0.68 0 0 Z " fill="#FCFCFC" transform="translate(117,80)"/>
<path d="M0 0 C3.3 0.99 6.6 1.98 10 3 C10 3.66 10 4.32 10 5 C5.55129785 5.39253254 2.85756507 4.15305957 -1 2 C-0.67 1.34 -0.34 0.68 0 0 Z " fill="#FCFAFB" transform="translate(37,187)"/>
<path d="M0 0 C0.66 0 1.32 0 2 0 C1.01 2.97 0.02 5.94 -1 9 C-1.99 8.67 -2.98 8.34 -4 8 C-1.125 1.125 -1.125 1.125 0 0 Z " fill="#FCFBF9" transform="translate(69,115)"/>
<path d="M0 0 C0.33 0 0.66 0 1 0 C1 1.65 1 3.3 1 5 C2.32 5.33 3.64 5.66 5 6 C5 6.66 5 7.32 5 8 C2.13275314 7.42655063 1.1385485 7.1385485 -1 5 C-0.625 2.375 -0.625 2.375 0 0 Z " fill="#FCFCFC" transform="translate(101,191)"/>
<path d="M0 0 C0.66 0.66 1.32 1.32 2 2 C1.625 4.625 1.625 4.625 1 7 C-0.65 7.33 -2.3 7.66 -4 8 C-2.87548273 5.0280615 -1.77706209 2.66559313 0 0 Z " fill="#FCFCFA" transform="translate(205,228)"/>
<path d="M0 0 C1.45922693 0.11409593 2.91740598 0.24165544 4.375 0.375 C5.59316406 0.47941406 5.59316406 0.47941406 6.8359375 0.5859375 C9 1 9 1 11 3 C7.02972626 4.32342458 4.88343142 3.36639254 1 2 C0.67 1.34 0.34 0.68 0 0 Z " fill="#FCFCFA" transform="translate(119,172)"/>
<path d="M0 0 C0.66 0.66 1.32 1.32 2 2 C1.8125 4 1.8125 4 1 6 C0.01 6.66 -0.98 7.32 -2 8 C-1.34 5.36 -0.68 2.72 0 0 Z M-3 8 C-2.34 8.99 -1.68 9.98 -1 11 C-1.99 11.33 -2.98 11.66 -4 12 C-3.67 10.68 -3.34 9.36 -3 8 Z " fill="#FCFCFB" transform="translate(206,90)"/>
<path d="M0 0 C0.66 0 1.32 0 2 0 C2 0.66 2 1.32 2 2 C3.65 1.34 5.3 0.68 7 0 C7 0.99 7 1.98 7 3 C4.6875 3.6875 4.6875 3.6875 2 4 C0.1875 2.5625 0.1875 2.5625 -1 1 C-0.67 0.67 -0.34 0.34 0 0 Z " fill="#FCFCFC" transform="translate(13,164)"/>
<path d="M0 0 C2.29013653 3.4352048 2.17842973 4.985331 2 9 C1.01 9.495 1.01 9.495 0 10 C0 8.02 0 6.04 0 4 C-0.66 3.67 -1.32 3.34 -2 3 C-1.34 2.01 -0.68 1.02 0 0 Z " fill="#FDFCFA" transform="translate(260,96)"/>
<path d="M0 0 C2 1 2 1 2 1 Z M-2 1 C-1.34 1.33 -0.68 1.66 0 2 C-1.75 6.875 -1.75 6.875 -4 8 C-4.125 5.625 -4.125 5.625 -4 3 C-3.34 2.34 -2.68 1.68 -2 1 Z " fill="#FCFCFC" transform="translate(209,32)"/>
<path d="M0 0 C1.98 0.99 3.96 1.98 6 3 C5.34 4.32 4.68 5.64 4 7 C0 2.25 0 2.25 0 0 Z " fill="#FBFBFA" transform="translate(125,31)"/>
<path d="M0 0 C0.66 0.33 1.32 0.66 2 1 C0.35 3.64 -1.3 6.28 -3 9 C-3.33 7.68 -3.66 6.36 -4 5 C-2.0625 2.25 -2.0625 2.25 0 0 Z " fill="#FCFCF9" transform="translate(73,28)"/>
<path d="" fill="#000000" transform="translate(0,0)"/>
<path d="" fill="#000000" transform="translate(0,0)"/>
<path d="" fill="#000000" transform="translate(0,0)"/>
<path d="" fill="#000000" transform="translate(0,0)"/>
<path d="" fill="#000000" transform="translate(0,0)"/>
<path d="" fill="#000000" transform="translate(0,0)"/>
<path d="" fill="#000000" transform="translate(0,0)"/>
<path d="" fill="#000000" transform="translate(0,0)"/>
<path d="" fill="#000000" transform="translate(0,0)"/>
<path d="" fill="#000000" transform="translate(0,0)"/>
<path d="" fill="#000000" transform="translate(0,0)"/>
<path d="" fill="#000000" transform="translate(0,0)"/>
<path d="" fill="#000000" transform="translate(0,0)"/>
<path d="" fill="#000000" transform="translate(0,0)"/>
<path d="" fill="#000000" transform="translate(0,0)"/>
<path d="" fill="#000000" transform="translate(0,0)"/>
<path d="" fill="#000000" transform="translate(0,0)"/>
<path d="" fill="#000000" transform="translate(0,0)"/>
<path d="" fill="#000000" transform="translate(0,0)"/>
<path d="" fill="#000000" transform="translate(0,0)"/>
<path d="" fill="#000000" transform="translate(0,0)"/>
<path d="" fill="#000000" transform="translate(0,0)"/>
<path d="" fill="#000000" transform="translate(0,0)"/>
<path d="" fill="#000000" transform="translate(0,0)"/>
<path d="" fill="#000000" transform="translate(0,0)"/>
<path d="" fill="#000000" transform="translate(0,0)"/>
<path d="" fill="#000000" transform="translate(0,0)"/>
<path d="" fill="#000000" transform="translate(0,0)"/>
<path d="" fill="#000000" transform="translate(0,0)"/>
<path d="" fill="#000000" transform="translate(0,0)"/>
<path d="" fill="#000000" transform="translate(0,0)"/>
<path d="" fill="#000000" transform="translate(0,0)"/>
<path d="" fill="#000000" transform="translate(0,0)"/>
<path d="" fill="#000000" transform="translate(0,0)"/>
<path d="" fill="#000000" transform="translate(0,0)"/>
<path d="" fill="#000000" transform="translate(0,0)"/>
<path d="" fill="#000000" transform="translate(0,0)"/>
<path d="" fill="#000000" transform="translate(0,0)"/>
<path d="" fill="#000000" transform="translate(0,0)"/>
<path d="" fill="#000000" transform="translate(0,0)"/>
<path d="" fill="#000000" transform="translate(0,0)"/>
<path d="" fill="#000000" transform="translate(0,0)"/>
<path d="" fill="#000000" transform="translate(0,0)"/>
<path d="" fill="#000000" transform="translate(0,0)"/>
<path d="" fill="#000000" transform="translate(0,0)"/>
<path d="" fill="#000000" transform="translate(0,0)"/>
<path d="" fill="#000000" transform="translate(0,0)"/>
<path d="" fill="#000000" transform="translate(0,0)"/>
<path d="" fill="#000000" transform="translate(0,0)"/>
<path d="" fill="#000000" transform="translate(0,0)"/>
<path d="" fill="#000000" transform="translate(0,0)"/>
<path d="" fill="#000000" transform="translate(0,0)"/>
<path d="" fill="#000000" transform="translate(0,0)"/>
<path d="" fill="#000000" transform="translate(0,0)"/>
<path d="" fill="#000000" transform="translate(0,0)"/>
<path d="" fill="#000000" transform="translate(0,0)"/>
</svg>
