<?xml version="1.0" encoding="UTF-8"?>
<svg version="1.1" xmlns="http://www.w3.org/2000/svg" width="931" height="268">
<path d="M0 0 C5.31577638 3.61501258 9.43866883 7.29154189 12.984375 12.66796875 C14.03521933 14.39385618 14.03521933 14.39385618 16.10546875 15.234375 C16.48058594 14.13416016 16.48058594 14.13416016 16.86328125 13.01171875 C20.95799036 3.85656724 30.2019626 -1.15783669 39.10546875 -4.765625 C43.57237268 -6.08026635 47.9205819 -5.94962054 52.54296875 -5.953125 C53.81237305 -5.97149414 53.81237305 -5.97149414 55.10742188 -5.99023438 C63.23675093 -6.00933225 63.23675093 -6.00933225 67.10546875 -3.765625 C69.10546875 -0.765625 69.10546875 -0.765625 68.91796875 1.796875 C68.10546875 4.234375 68.10546875 4.234375 65.10546875 6.234375 C62.42529424 6.11188607 59.82996609 5.8947964 57.16796875 5.609375 C47.09213837 4.80779146 39.21048586 6.34876591 31.16796875 12.859375 C24.29735582 19.54294765 21.33775147 27.21336716 20.97175598 36.7003479 C20.96794418 37.97179657 20.96413239 39.24324524 20.96020508 40.55322266 C20.95684647 41.2596843 20.95348785 41.96614594 20.95002747 42.6940155 C20.94058454 45.01217439 20.93857819 47.33026062 20.9375 49.6484375 C20.93428441 51.2669579 20.93092011 52.88547801 20.92741394 54.5039978 C20.92144054 57.88808873 20.91957236 61.27215418 20.92016602 64.65625 C20.92026791 68.99178988 20.90657959 73.327167 20.88939381 77.66266823 C20.87827976 81.00152336 20.87624657 84.34033893 20.87677574 87.67921066 C20.87559612 89.27799418 20.87117533 90.87677872 20.86344337 92.47554398 C20.85364897 94.70858498 20.85651845 96.9412697 20.86254883 99.17431641 C20.86112381 100.44417389 20.85969879 101.71403137 20.85823059 103.02236938 C21.09403507 106.0858338 21.36859408 107.73978087 23.10546875 110.234375 C27.13900994 112.92340246 30.37017708 112.89611267 35.10546875 112.234375 C38.71716095 110.04835077 39.40150471 107.48286773 40.54296875 103.609375 C41.80640099 99.44142191 41.80640099 99.44142191 44.54296875 97.546875 C47.10546875 97.234375 47.10546875 97.234375 49.35546875 97.671875 C51.10546875 99.234375 51.10546875 99.234375 52.10546875 102.234375 C52.10546875 108.27621194 50.46589909 113.51681099 46.453125 118.13671875 C41.62874392 122.45438146 37.16290117 124.52121451 30.60546875 124.484375 C29.68765625 124.48953125 28.76984375 124.4946875 27.82421875 124.5 C24.92043991 124.21629747 22.77851963 123.36252347 20.10546875 122.234375 C20.14363858 132.99684244 20.20316383 143.75896505 20.28937149 154.52116108 C20.32875003 159.51940975 20.36098553 164.51748478 20.37646484 169.51586914 C20.39169504 174.34662211 20.4262526 179.17689739 20.47377777 184.00743675 C20.48852624 185.84321103 20.49650598 187.67905353 20.4973526 189.51488686 C20.51042077 203.65321881 21.46150481 214.47879876 31.7265625 225.1328125 C39.16581135 231.70475976 46.96042846 232.58927145 56.5546875 232.51953125 C61.4336431 232.12771193 64.94036606 230.70929109 69.10546875 228.234375 C70.15734375 227.6775 71.20921875 227.120625 72.29296875 226.546875 C79.29862364 220.78666987 83.35856043 212.51393755 84.421875 203.57421875 C84.83673504 194.05920304 81.63894762 186.36532328 75.74609375 178.984375 C71.84710593 174.82545466 66.98291929 172.10346355 62.10546875 169.234375 C61.10546875 168.234375 61.10546875 168.234375 60.85546875 165.859375 C61.10546875 163.234375 61.10546875 163.234375 62.23046875 161.359375 C64.10546875 160.234375 64.10546875 160.234375 66.79296875 160.296875 C75.15712255 162.66408834 79.85826427 166.6320476 85.7109375 173.08984375 C88.32343512 175.42958468 89.67049851 175.91954958 93.10546875 176.234375 C94.59046875 176.3890625 94.59046875 176.3890625 96.10546875 176.546875 C105.31605674 176.32566 113.7059037 172.87365313 120.23046875 166.45703125 C127.83356994 157.44418838 128.96914284 148.78758054 128.10546875 137.234375 C126.42533461 129.49719675 122.10612905 123.32036178 116.10546875 118.234375 C109.56679061 114.22711336 102.64421238 112.33002755 95.10546875 111.234375 C95.20085937 111.82863281 95.29625 112.42289062 95.39453125 113.03515625 C96.2639201 119.53535431 96.39998514 125.99453631 94.10546875 132.234375 C92.19140625 134.06640625 92.19140625 134.06640625 90.10546875 135.234375 C85.69521234 134.82411859 85.69521234 134.82411859 84.10546875 133.234375 C84.06708927 131.86113863 84.09364537 130.48596072 84.1484375 129.11328125 C84.69869873 115.65948735 84.69869873 115.65948735 80.10546875 103.234375 C79.52732422 102.13222656 79.52732422 102.13222656 78.9375 101.0078125 C76.3168075 96.34314947 73.6375349 94.15503985 69.10546875 91.234375 C67.43307077 88.44704503 66.89935273 87.16189708 67.60546875 83.984375 C69.10546875 82.234375 69.10546875 82.234375 71.91796875 81.296875 C75.65525679 81.22359484 77.04105386 82.23131943 80.10546875 84.234375 C80.44320312 83.39132813 80.7809375 82.54828125 81.12890625 81.6796875 C81.79792969 80.03613281 81.79792969 80.03613281 82.48046875 78.359375 C83.14175781 76.72355469 83.14175781 76.72355469 83.81640625 75.0546875 C85.10546875 72.234375 85.10546875 72.234375 87.10546875 70.234375 C89.54296875 69.859375 89.54296875 69.859375 92.10546875 70.234375 C94.19831923 72.36580337 95.10671418 73.50205937 95.1015625 76.53125 C93.94005552 81.63213382 92.52098179 85.9471272 89.8125 90.4453125 C88.88020944 92.80436816 89.24444216 93.87452433 90.10546875 96.234375 C90.33492187 96.9665625 90.564375 97.69875 90.80078125 98.453125 C92.00509271 100.52699724 92.00509271 100.52699724 94.72265625 100.703125 C95.79773438 100.7134375 96.8728125 100.72375 97.98046875 100.734375 C108.30753439 101.23646438 116.64887407 104.37980945 125.10546875 110.234375 C128.67042756 101.76759782 129.82786478 92.46149912 127.34375 83.48046875 C126.40029715 81.27659273 125.35493489 79.27817528 124.10546875 77.234375 C123.46609375 76.14125 122.82671875 75.048125 122.16796875 73.921875 C117.55624134 67.91265443 111.19052996 64.59606207 104.10546875 62.234375 C101.64865774 62.1383617 99.18915042 62.10454458 96.73046875 62.109375 C95.42335937 62.10679688 94.11625 62.10421875 92.76953125 62.1015625 C89.22790143 62.12890481 89.22790143 62.12890481 86.3046875 62.80859375 C84.10546875 63.234375 84.10546875 63.234375 81.29296875 62.171875 C79.10546875 60.234375 79.10546875 60.234375 78.54296875 57.484375 C79.14463641 54.00807298 80.19858844 51.93390579 82.1328125 49.04296875 C85.66262527 42.47950163 84.77645334 33.23751191 82.91796875 26.296875 C81.94163993 22.53969235 81.94163993 22.53969235 83.48046875 19.671875 C84.28484375 18.9603125 84.28484375 18.9603125 85.10546875 18.234375 C87.41546875 18.564375 89.72546875 18.894375 92.10546875 19.234375 C96.26609745 29.59669553 96.99582816 39.43732993 94.10546875 50.234375 C95.32234375 50.151875 96.53921875 50.069375 97.79296875 49.984375 C109.22524875 50.02038218 119.22024848 54.81377738 127.48046875 62.421875 C136.89197871 72.08105628 140.52560048 83.23680859 140.46484375 96.52734375 C139.82085578 103.1702197 137.92977345 112.4100703 133.10546875 117.234375 C133.67332892 121.78739672 136.13669997 126.09397933 137.94921875 130.26171875 C142.21010769 141.2162339 140.52390711 152.60659279 136.10546875 163.234375 C130.8171365 173.82473983 123.05888391 180.81901683 112.10546875 185.234375 C108.96352101 186.04266188 105.81688276 186.53979814 102.60546875 186.984375 C101.78304687 187.10941406 100.960625 187.23445312 100.11328125 187.36328125 C98.11246647 187.66573 96.10918681 187.95179938 94.10546875 188.234375 C94.26144531 188.81703125 94.41742188 189.3996875 94.578125 190 C97.4282922 202.00467774 95.64405628 213.11078615 89.63671875 223.86328125 C83.07310907 234.00281979 74.66500105 239.96594494 63.10546875 243.234375 C62.450625 243.42515625 61.79578125 243.6159375 61.12109375 243.8125 C50.60853489 246.01280302 39.2880832 243.70133475 30.01953125 238.50390625 C23.85729434 234.27475462 19.29024053 229.40441394 15.10546875 223.234375 C14.42742187 224.03101563 13.749375 224.82765625 13.05078125 225.6484375 C4.1766526 235.84701499 -5.05546403 243.11452239 -18.95703125 244.55078125 C-31.45363866 245.01640004 -43.26570735 241.33338575 -52.89453125 233.234375 C-58.54374337 227.03355631 -62.37606428 220.21663472 -64.89453125 212.234375 C-65.18457031 211.33138672 -65.18457031 211.33138672 -65.48046875 210.41015625 C-66.08799963 207.21775342 -66.06583027 204.10605147 -66.08203125 200.859375 C-66.09621094 199.57289063 -66.11039063 198.28640625 -66.125 196.9609375 C-65.90167266 193.34984789 -65.20746157 190.58675833 -63.89453125 187.234375 C-64.94640625 187.29625 -65.99828125 187.358125 -67.08203125 187.421875 C-75.5287991 187.40684516 -85.18986595 185.56763149 -91.89453125 180.234375 C-93.01953125 177.171875 -93.01953125 177.171875 -92.89453125 174.234375 C-91.89453125 172.296875 -91.89453125 172.296875 -89.89453125 171.234375 C-86.01890219 171.38343766 -83.21860588 172.08186929 -79.70703125 173.734375 C-73.6008861 176.53245054 -66.64639345 176.55016247 -60.08203125 175.796875 C-56.18520531 173.88666621 -54.22492115 171.46669685 -51.51171875 168.14453125 C-49.49976556 165.76809378 -47.79415575 164.3942248 -44.89453125 163.234375 C-41.14453125 162.984375 -41.14453125 162.984375 -37.89453125 163.234375 C-36.89453125 164.234375 -36.89453125 164.234375 -36.20703125 167.296875 C-37.1619864 172.76616357 -39.9386658 173.9545584 -44.2734375 177.12109375 C-49.48719314 181.3247328 -52.99134889 186.56247951 -53.89453125 193.234375 C-54.57268927 204.7630613 -54.36960352 213.45747892 -46.70703125 222.546875 C-41.03021096 228.50106436 -35.03108418 231.84417608 -26.7578125 232.47265625 C-19.11925882 232.63231799 -13.49384213 232.16936782 -6.89453125 228.234375 C-5.84265625 227.656875 -4.79078125 227.079375 -3.70703125 226.484375 C2.193001 221.7643492 6.42686897 215.66904603 8.10546875 208.234375 C8.52326367 203.41702916 8.6212054 198.63979806 8.60644531 193.80639648 C8.60546616 191.54088801 8.64731575 189.27869874 8.69140625 187.01367188 C8.69660967 185.56250699 8.6993015 184.11133046 8.69921875 182.66015625 C8.70630859 181.35473877 8.71339844 180.04932129 8.72070312 178.7043457 C7.95486162 174.38493883 6.48044309 172.94135938 3.10546875 170.234375 C-0.01822971 169.00133613 -2.14510685 169.25165608 -5.51953125 169.484375 C-9.05479505 170.857992 -9.05479505 170.857992 -9.9375 173.75 C-10.44558033 175.72042319 -10.89757288 177.7062652 -11.2890625 179.703125 C-11.89453125 182.234375 -11.89453125 182.234375 -13.89453125 184.234375 C-16.89453125 184.484375 -16.89453125 184.484375 -19.89453125 184.234375 C-22.24473623 181.88417002 -22.21367927 181.31527878 -22.26953125 178.109375 C-22.12407774 173.07506727 -20.95033928 169.26363988 -17.89453125 165.234375 C-12.52136514 160.26122327 -8.28369792 158.0912643 -0.89453125 158.109375 C0.15734375 158.10679687 1.20921875 158.10421875 2.29296875 158.1015625 C5.10546875 158.234375 5.10546875 158.234375 8.10546875 159.234375 C8.12861571 148.07318403 8.14639589 136.91199875 8.15728092 125.75078869 C8.16250458 120.56846966 8.16959289 115.38616702 8.1809082 110.20385742 C8.19175539 105.20478974 8.19774949 100.20573785 8.20034599 95.20665932 C8.20219693 93.29724186 8.20581121 91.38782529 8.21119881 89.47841454 C8.21843349 86.80875134 8.21945866 84.13915381 8.21899414 81.46948242 C8.22438705 80.27941589 8.22438705 80.27941589 8.22988892 79.06530762 C8.22382323 75.85416252 8.1285596 73.30364754 7.10546875 70.234375 C3.41076734 68.22867995 0.26696568 67.80088574 -3.89453125 68.234375 C-6.73289306 68.95269142 -6.73289306 68.95269142 -8.89453125 71.234375 C-9.83830435 73.78637132 -10.52104425 76.30356561 -11.12109375 78.95703125 C-11.89453125 81.234375 -11.89453125 81.234375 -14.89453125 83.234375 C-20.45008681 82.67881944 -20.45008681 82.67881944 -21.89453125 81.234375 C-22.75794287 74.90680128 -22.12667335 70.19936191 -18.37890625 64.98828125 C-14.28105004 60.14634062 -10.31042609 57.30369081 -3.89453125 56.234375 C4.59031723 56.47679924 4.59031723 56.47679924 8.10546875 58.234375 C8.25608921 54.32442246 8.36371979 50.4156382 8.43505859 46.50341797 C8.47934757 44.5342254 8.55566779 42.56583551 8.6328125 40.59765625 C8.77468646 31.28126613 6.89009268 25.17175504 2.10546875 17.234375 C1.74904297 16.48760498 1.39261719 15.74083496 1.02539062 14.97143555 C-0.21235389 12.63424016 -1.48061126 12.24233801 -3.89453125 11.234375 C-4.67570312 10.82058594 -5.456875 10.40679688 -6.26171875 9.98046875 C-10.79524217 7.61484516 -14.71305624 5.57229728 -19.89453125 5.234375 C-21.68890625 5.0796875 -21.68890625 5.0796875 -23.51953125 4.921875 C-32.73877162 5.11577872 -40.52479801 8.78796833 -47.05078125 15.1484375 C-54.80708576 23.92357862 -54.54891133 34.12100482 -53.89453125 45.234375 C-53.15395835 48.47835693 -52.32146008 51.80744617 -49.89453125 54.234375 C-49.58203125 57.109375 -49.58203125 57.109375 -49.89453125 60.234375 C-51.51953125 62.171875 -51.51953125 62.171875 -53.89453125 63.234375 C-55.89960116 62.93303501 -57.89904642 62.59375141 -59.89453125 62.234375 C-70.25843855 61.30608852 -78.28678796 62.07516866 -86.89453125 68.234375 C-94.0291259 74.60702265 -98.2665638 81.56091906 -99.0546875 91.19140625 C-99.2957334 97.17563264 -98.28077936 102.7175445 -95.89453125 108.234375 C-95.23453125 108.564375 -94.57453125 108.894375 -93.89453125 109.234375 C-91.82328569 108.186745 -89.78750752 107.06876584 -87.76953125 105.921875 C-80.1038321 101.79887324 -72.54617523 100.48759385 -63.89453125 100.234375 C-62.90453125 100.729375 -62.90453125 100.729375 -61.89453125 101.234375 C-59.38450879 96.12501859 -59.38450879 96.12501859 -59.85546875 90.859375 C-60.32210937 89.993125 -60.78875 89.126875 -61.26953125 88.234375 C-64.32616284 82.4967872 -65.20218729 78.69515178 -64.89453125 72.234375 C-64.23453125 71.574375 -63.57453125 70.914375 -62.89453125 70.234375 C-59.26953125 70.609375 -59.26953125 70.609375 -55.89453125 71.234375 C-54.77872581 73.94418821 -53.77245182 76.62350318 -52.89453125 79.421875 C-52.08839044 82.326755 -52.08839044 82.326755 -49.89453125 84.234375 C-49.17265625 83.71875 -48.45078125 83.203125 -47.70703125 82.671875 C-44.89453125 81.234375 -44.89453125 81.234375 -42.20703125 81.359375 C-39.89453125 82.234375 -39.89453125 82.234375 -37.89453125 85.234375 C-38.00046587 88.68003784 -38.62250568 89.95392605 -41.0390625 92.4453125 C-41.91949219 93.15945312 -42.79992187 93.87359375 -43.70703125 94.609375 C-49.41163342 99.51533287 -52.70818201 103.64145551 -53.89453125 111.234375 C-53.92844375 112.89294433 -53.91254144 114.55314262 -53.8515625 116.2109375 C-53.8196582 117.58765625 -53.8196582 117.58765625 -53.78710938 118.9921875 C-53.73349584 120.91181368 -53.6682916 122.8311494 -53.59179688 124.75 C-53.56569336 126.12285156 -53.56569336 126.12285156 -53.5390625 127.5234375 C-53.49809448 128.77181396 -53.49809448 128.77181396 -53.45629883 130.04541016 C-53.89453125 132.234375 -53.89453125 132.234375 -55.75268555 134.03662109 C-57.89453125 135.234375 -57.89453125 135.234375 -60.51953125 135.109375 C-62.89453125 134.234375 -62.89453125 134.234375 -64.89453125 131.234375 C-65.96641374 127.18109752 -66.18401161 123.09517528 -66.45703125 118.921875 C-66.54082031 117.66761719 -66.62460938 116.41335937 -66.7109375 115.12109375 C-66.77152344 114.16847656 -66.83210938 113.21585937 -66.89453125 112.234375 C-75.99528976 112.90850526 -84.44543108 115.49213391 -90.89453125 122.234375 C-96.09896078 129.36544431 -98.97985817 136.11475998 -98.83203125 144.984375 C-98.90251078 148.64931048 -99.76666174 150.30855443 -101.89453125 153.234375 C-108.76953125 152.359375 -108.76953125 152.359375 -109.89453125 151.234375 C-110.72335373 140.06565245 -109.89964558 130.74268579 -103.89453125 120.984375 C-103.39953125 119.623125 -103.39953125 119.623125 -102.89453125 118.234375 C-104.28964936 115.08297098 -104.28964936 115.08297098 -105.62109375 113.3359375 C-109.45333174 107.01156928 -110.42593798 101.17030052 -110.33203125 93.921875 C-110.32300781 93.08591797 -110.31398438 92.24996094 -110.3046875 91.38867188 C-109.97810111 79.6950647 -105.71972348 70.92903303 -97.89453125 62.234375 C-88.49524009 53.5085533 -77.50952063 50.08962852 -64.89453125 49.234375 C-65.05179688 48.72648437 -65.2090625 48.21859375 -65.37109375 47.6953125 C-67.75165557 36.50311885 -66.02609175 25.36147872 -60.89453125 15.234375 C-47.45834565 -5.37513351 -21.63475721 -13.19690993 0 0 Z " fill="#06090A" transform="translate(120.89453125,15.765625)"/>
<path d="M0 0 C9.57 0 19.14 0 29 0 C30.9051445 6.92225936 32.8094563 13.84467146 34.70664215 20.769104 C35.59073475 23.99507089 36.47656852 27.22053332 37.36499023 30.4453125 C38.38895747 34.16305683 39.40781636 37.88217076 40.42578125 41.6015625 C40.73840408 42.73236237 41.05102692 43.86316223 41.37312317 45.02822876 C43.5393851 52.96955342 45.34897993 60.93629128 47 69 C47.18358063 68.16588089 47.36716125 67.33176178 47.55630493 66.47236633 C51.11552928 50.32308066 54.86491935 34.23106456 58.875 18.1875 C59.07358612 17.38993286 59.27217224 16.59236572 59.47677612 15.77062988 C60.04141114 13.5064765 60.60972113 11.24328525 61.1796875 8.98046875 C61.43394753 7.96224281 61.43394753 7.96224281 61.69334412 6.92344666 C62.88392491 2.23215018 62.88392491 2.23215018 64 0 C73.24 0 82.48 0 92 0 C93.24482124 6.22410618 94.39136212 12.26448678 95.14501953 18.53564453 C95.24284729 19.32404724 95.34067505 20.11244995 95.44146729 20.92474365 C95.75912536 23.49364025 96.0712199 26.06317369 96.3828125 28.6328125 C96.60396088 30.43783933 96.82530834 32.24284177 97.04684448 34.04782104 C97.50823138 37.81461442 97.96676649 41.58174135 98.42333984 45.34912109 C99.00696231 50.1623762 99.59842572 54.97463044 100.19211006 59.78665352 C100.65020762 63.50783234 101.10378513 67.22955176 101.55605698 70.95144272 C101.77227365 72.72572595 101.98995611 74.49983123 102.2091713 76.27374649 C102.51534615 78.75634066 102.81531732 81.2396117 103.11376953 83.72314453 C103.20413483 84.44543243 103.29450012 85.16772034 103.38760376 85.91189575 C103.50948059 86.94165527 103.50948059 86.94165527 103.63381958 87.99221802 C103.74053828 88.86871852 103.74053828 88.86871852 103.84941292 89.7629261 C104.07861958 93.16794751 104 96.58727287 104 100 C97.07 100 90.14 100 83 100 C82.30243667 92.62120198 81.60884237 85.24204475 80.91870117 77.86254883 C80.68407741 75.35952018 80.44842613 72.85658761 80.21166992 70.35375977 C79.00446647 57.58496725 77.80346957 44.84014471 77.22631836 32.02514648 C77.12056508 28.95407681 77.12056508 28.95407681 76 26 C75.72929687 27.23621094 75.45859375 28.47242188 75.1796875 29.74609375 C69.80724827 53.43050297 62.76449641 76.68510972 56 100 C50.06 100 44.12 100 38 100 C36.11441739 94.97177971 34.330365 90.06321083 32.73046875 84.95703125 C32.52884125 84.31463501 32.32721375 83.67223877 32.11947632 83.01037598 C31.47260937 80.9453023 30.8296282 78.87905172 30.1875 76.8125 C29.96689911 76.1043515 29.74629822 75.396203 29.51901245 74.66659546 C26.7915105 65.90401194 24.0984511 57.13280011 21.5625 48.3125 C21.34037842 47.54462158 21.11825684 46.77674316 20.8894043 45.9855957 C19.02135249 39.37959612 17.50663155 32.6963568 16 26 C15.62846017 30.28286272 15.25821769 34.56583552 14.88909912 38.84890747 C14.7548738 40.40594967 14.62047483 41.96297691 14.48590088 43.51998901 C13.68103616 52.84162184 12.90013823 62.16454365 12.16796875 71.4921875 C12.10101303 72.34003311 12.03405731 73.18787872 11.96507263 74.06141663 C11.63933026 78.18731281 11.3176582 82.31345319 11.00268555 86.44018555 C10.88479031 87.94060719 10.76671709 89.44101486 10.6484375 90.94140625 C10.59749435 91.62939301 10.54655121 92.31737976 10.49406433 93.0262146 C10.11358211 97.77283578 10.11358211 97.77283578 9 100 C2.4 100 -4.2 100 -11 100 C-10.32619774 88.6031286 -9.24165393 77.30102974 -7.96875 65.95703125 C-7.7705845 64.17203542 -7.5726312 62.38701603 -7.37487793 60.60197449 C-6.96344823 56.89481212 -6.54973222 53.18791454 -6.13427734 49.48120117 C-5.60222221 44.7327962 -5.07564072 39.9838028 -4.55068207 35.23460865 C-4.14436267 31.56356767 -3.73538564 27.89282662 -3.32557678 24.22217369 C-3.13023908 22.46997383 -2.93568235 20.71768671 -2.7419281 18.96531105 C-2.47190323 16.5271031 -2.19834782 14.08931674 -1.92382812 11.65161133 C-1.8448378 10.93214828 -1.76584747 10.21268524 -1.6844635 9.47142029 C-1.31393889 6.21282586 -0.79814811 3.19259244 0 0 Z " fill="#000000" transform="translate(317,83)"/>
<path d="M0 0 C2.46915669 1.66193239 4.24080465 3.07542416 6.25 5.1875 C6.90226563 4.84976563 7.55453125 4.51203125 8.2265625 4.1640625 C9.10054687 3.71804687 9.97453125 3.27203125 10.875 2.8125 C11.73351562 2.37164062 12.59203125 1.93078125 13.4765625 1.4765625 C19.08464243 -1.13000986 23.94958413 -2.17541454 30.125 -2.125 C31.18509277 -2.11762817 31.18509277 -2.11762817 32.26660156 -2.11010742 C38.86296434 -1.96171209 43.68849909 -1.30477116 48.5625 3.4375 C52.64423782 10.08922089 54.38097941 16.16362206 54.36352539 23.89575195 C54.36341209 25.57692863 54.36341209 25.57692863 54.36329651 27.29206848 C54.35813522 28.4911937 54.35297394 29.69031891 54.34765625 30.92578125 C54.3462413 32.16168503 54.34482635 33.39758881 54.34336853 34.67094421 C54.33872618 37.94408345 54.32975311 41.21717287 54.31866455 44.49029541 C54.30840404 47.83532248 54.30394631 51.18035173 54.29882812 54.52539062 C54.28780907 61.07944901 54.27054953 67.63346484 54.25 74.1875 C47.32 74.1875 40.39 74.1875 33.25 74.1875 C33.23541748 72.70950928 33.22083496 71.23151855 33.20581055 69.70874023 C33.14770157 64.20882352 33.0704687 58.7093108 32.98754883 53.2097168 C32.95435885 50.83250501 32.92630859 48.45521554 32.90356445 46.07788086 C32.86991014 42.65444942 32.81758699 39.23172604 32.76171875 35.80859375 C32.75532883 34.75103378 32.7489389 33.69347382 32.74235535 32.60386658 C32.62622417 26.73393954 32.14752602 22.34620648 29.25 17.1875 C25.87601493 15.50050746 22.97497149 15.92517806 19.25 16.1875 C16.28 17.5075 13.31 18.8275 10.25 20.1875 C9.92 38.0075 9.59 55.8275 9.25 74.1875 C2.65 74.1875 -3.95 74.1875 -10.75 74.1875 C-10.79898438 70.89910156 -10.84796875 67.61070312 -10.8984375 64.22265625 C-10.95254507 61.01549985 -11.00981411 57.80841428 -11.06738281 54.60131836 C-11.10551631 52.38327372 -11.14039561 50.16517054 -11.171875 47.94702148 C-11.21786647 44.74702111 -11.27580329 41.54741842 -11.3359375 38.34765625 C-11.34748871 37.36604019 -11.35903992 36.38442413 -11.37094116 35.37306213 C-11.5331651 26.60690598 -11.5331651 26.60690598 -13.75 18.1875 C-17.48902552 15.69481632 -20.42105633 15.66371322 -24.75 16.1875 C-27.51155012 16.9933616 -30.10848545 18.05709577 -32.75 19.1875 C-33.74 19.5175 -34.73 19.8475 -35.75 20.1875 C-35.67273682 20.8786792 -35.59547363 21.5698584 -35.51586914 22.28198242 C-34.48906587 33.04503518 -34.85897668 43.70927238 -35.1875 54.5 C-35.24085281 56.4159985 -35.29359174 58.3320142 -35.34570312 60.24804688 C-35.47226927 64.89483254 -35.61139388 69.54099631 -35.75 74.1875 C-42.68 74.1875 -49.61 74.1875 -56.75 74.1875 C-56.75 49.4375 -56.75 24.6875 -56.75 -0.8125 C-50.15 -0.8125 -43.55 -0.8125 -36.75 -0.8125 C-36.42 1.1675 -36.09 3.1475 -35.75 5.1875 C-35.09773437 4.84976563 -34.44546875 4.51203125 -33.7734375 4.1640625 C-32.89945313 3.71804687 -32.02546875 3.27203125 -31.125 2.8125 C-30.26648438 2.37164062 -29.40796875 1.93078125 -28.5234375 1.4765625 C-19.90011653 -2.53145992 -8.88432939 -4.31005571 0 0 Z " fill="#000000" transform="translate(596.75,108.8125)"/>
<path d="M0 0 C7.26 0 14.52 0 22 0 C23.81482687 3.62965373 24.66158329 6.39982308 25.5625 10.3125 C27.97847947 20.454386 30.98144026 30.43364447 33.91430664 40.43481445 C34.10934784 41.10033829 34.30438904 41.76586212 34.50534058 42.45155334 C35.04355576 44.2861075 35.58361203 46.12012123 36.1237793 47.95410156 C36.79738544 50.29567589 37.4332517 52.63095567 38 55 C41.23926219 43.05894331 44.26275218 31.06868931 47.25 19.0625 C47.71343037 17.20374829 48.17697136 15.34502415 48.640625 13.48632812 C49.76189157 8.99125054 50.88090036 4.49561973 52 0 C59.59 0 67.18 0 75 0 C71.96179467 10.10168271 68.90356646 20.1970839 65.8270874 30.28717041 C65.26103863 32.14379868 64.69534097 34.00053402 64.12994385 35.85736084 C62.29799948 41.87147826 60.45682915 47.88266436 58.60528564 53.89077759 C57.99800258 55.86538652 57.39326661 57.84078077 56.79119873 59.81698608 C46.01395202 95.1651737 46.01395202 95.1651737 32.91015625 103.296875 C27.50155816 106.07671312 23.11694577 107.14029236 17 107.125 C15.96875 107.12757813 14.9375 107.13015625 13.875 107.1328125 C11 107 11 107 7 106 C7 100.72 7 95.44 7 90 C8.9490625 90.0928125 8.9490625 90.0928125 10.9375 90.1875 C16.60372341 90.15180725 22.39973887 89.56230111 26.60546875 85.41796875 C29.00210837 82.19199343 30.72579443 78.82261671 32 75 C29.69 75 27.38 75 25 75 C20.98437755 63.50598487 16.97267144 52.01061505 12.967453 40.51296997 C11.15723363 35.31717668 9.3437916 30.1225404 7.52502441 24.92973328 C6.36727963 21.62106408 5.21530858 18.3103922 4.0625 15 C3.64436035 13.81059814 3.2262207 12.62119629 2.79541016 11.39575195 C2.42077637 10.31640381 2.04614258 9.23705566 1.66015625 8.125 C1.33668213 7.19945313 1.01320801 6.27390625 0.67993164 5.3203125 C0 3 0 3 0 0 Z " fill="#000000" transform="translate(841,108)"/>
<path d="M0 0 C7.77249664 6.18142085 11.43754833 15.34435527 13.25 24.875 C14.51329225 36.17414617 13.89656308 48.10031103 7.296875 57.72265625 C0.52907117 65.75646535 -7.2563422 70.65360704 -17.75 71.875 C-29.17954424 72.65353417 -38.50958566 70.95879293 -47.75 63.875 C-56.13197586 55.5109727 -58.82877225 44.31436564 -59.0625 32.8125 C-58.95831015 22.19555413 -56.69949112 12.90243556 -49.66015625 4.7421875 C-37.14114195 -7.49521298 -14.74947225 -9.24641536 0 0 Z M-31.75 12.875 C-37.87380354 22.06070532 -38.00404197 33.18896848 -36.0625 43.8125 C-34.87944591 48.15576707 -33.21144348 51.89966722 -29.75 54.875 C-25.20532879 57.0151735 -21.77451377 57.14372492 -16.9375 55.875 C-11.97530989 52.76146895 -9.92725589 49.19621955 -8.5 43.625 C-6.63588531 33.56549822 -7.18488643 22.62518318 -12.6875 13.75 C-15.93325629 10.79931246 -17.70444551 9.9718106 -22.125 9.5625 C-26.24364044 9.91755521 -28.37628381 10.47591293 -31.75 12.875 Z " fill="#000000" transform="translate(736.75,112.125)"/>
<path d="M0 0 C5.25448725 4.69904463 6.10381905 8.51150074 8.91015625 15.52734375 C8.91015625 22.78734375 8.91015625 30.04734375 8.91015625 37.52734375 C-5.60984375 37.52734375 -20.12984375 37.52734375 -35.08984375 37.52734375 C-33.68827596 45.85714128 -33.68827596 45.85714128 -29.08984375 51.52734375 C-20.79748198 56.6439074 -10.88365558 55.11275867 -1.77734375 53.02734375 C0.12223591 52.54177073 2.01965842 52.0471533 3.91015625 51.52734375 C4.41773487 52.94131277 4.9159055 54.35866104 5.41015625 55.77734375 C5.68859375 56.56625 5.96703125 57.35515625 6.25390625 58.16796875 C6.91015625 60.52734375 6.91015625 60.52734375 6.91015625 64.52734375 C-5.60157275 70.86791048 -19.02321731 73.86713988 -32.90234375 70.2734375 C-41.55006049 67.3239484 -48.23586989 62.21794208 -52.375 53.96484375 C-57.04105592 42.72617144 -58.38504603 28.42779136 -54.125 16.796875 C-49.41323457 6.46655154 -43.68245033 -0.00022236 -33.08984375 -4.47265625 C-22.09892987 -7.20594832 -9.44057119 -6.65251465 0 0 Z M-30.08984375 11.52734375 C-34.19148082 17.03217245 -34.15567983 19.05403241 -35.08984375 26.52734375 C-26.83984375 26.52734375 -18.58984375 26.52734375 -10.08984375 26.52734375 C-10.22227221 16.41803257 -10.22227221 16.41803257 -13.21484375 11.90234375 C-18.88337695 7.21964241 -23.97437276 7.83498391 -30.08984375 11.52734375 Z " fill="#000000" transform="translate(502.08984375,112.47265625)"/>
<path d="M0 0 C1.59908203 -0.00386719 1.59908203 -0.00386719 3.23046875 -0.0078125 C5.8125 0.125 5.8125 0.125 6.8125 1.125 C6.89919432 2.6137186 6.91953494 4.106445 6.91015625 5.59765625 C6.90693359 6.49677734 6.90371094 7.39589844 6.90039062 8.32226562 C6.88782227 9.74055664 6.88782227 9.74055664 6.875 11.1875 C6.87048828 12.13689453 6.86597656 13.08628906 6.86132812 14.06445312 C6.8495011 16.41803065 6.83302025 18.77148477 6.8125 21.125 C5.1109375 21.03798828 5.1109375 21.03798828 3.375 20.94921875 C1.85420819 20.90228073 0.33337138 20.85678494 -1.1875 20.8125 C-1.93128906 20.77060547 -2.67507813 20.72871094 -3.44140625 20.68554688 C-8.54571473 20.57458365 -12.22317727 21.49807936 -16.49804688 24.3243866 C-19.94117203 27.99405769 -19.27419201 32.78283286 -19.1875 37.55078125 C-19.2038147 39.20487251 -19.2038147 39.20487251 -19.22045898 40.89237976 C-19.24661844 44.40841312 -19.21777062 47.92154383 -19.1875 51.4375 C-19.19559116 53.82358277 -19.20726768 56.20965626 -19.22265625 58.59570312 C-19.2525135 64.43950859 -19.23304753 70.28131535 -19.1875 76.125 C-26.1175 76.125 -33.0475 76.125 -40.1875 76.125 C-40.1875 51.375 -40.1875 26.625 -40.1875 1.125 C-33.9175 1.125 -27.6475 1.125 -21.1875 1.125 C-20.8575 3.765 -20.5275 6.405 -20.1875 9.125 C-19.465625 8.361875 -18.74375 7.59875 -18 6.8125 C-12.28614783 1.35259681 -7.75244327 -0.01888537 0 0 Z " fill="#000000" transform="translate(817.1875,106.875)"/>
<path d="M0 0 C1.34715808 2.69431616 0.60754155 4.08496638 0 7 C-0.0339125 8.65856933 -0.01801019 10.31876762 0.04296875 11.9765625 C0.06423828 12.894375 0.08550781 13.8121875 0.10742188 14.7578125 C0.16103541 16.67743868 0.22623965 18.5967744 0.30273438 20.515625 C0.32883789 21.88847656 0.32883789 21.88847656 0.35546875 23.2890625 C0.38278076 24.12131348 0.41009277 24.95356445 0.43823242 25.81103516 C0 28 0 28 -1.8503418 29.81396484 C-4 31 -4 31 -6.75 30.6875 C-7.4925 30.460625 -8.235 30.23375 -9 30 C-8.360625 29.87625 -7.72125 29.7525 -7.0625 29.625 C-6.381875 29.41875 -5.70125 29.2125 -5 29 C-4.67 28.34 -4.34 27.68 -4 27 C-3.67 27 -3.34 27 -3 27 C-3.01571045 26.43079834 -3.0314209 25.86159668 -3.04760742 25.27514648 C-3.11048439 22.66270126 -3.14915532 20.0504159 -3.1875 17.4375 C-3.21263672 16.54224609 -3.23777344 15.64699219 -3.26367188 14.72460938 C-3.32655603 9.00215108 -2.65798531 5.08575141 0 0 Z " fill="#010101" transform="translate(67,120)"/>
<path d="M0 0 C0.66 1.32 1.32 2.64 2 4 C1.34 4 0.68 4 0 4 C-0.99 7.3 -1.98 10.6 -3 14 C-3.66 14 -4.32 14 -5 14 C-5 14.66 -5 15.32 -5 16 C-5.66 16 -6.32 16 -7 16 C-7.268125 16.598125 -7.53625 17.19625 -7.8125 17.8125 C-10.43538459 22.64412952 -13.84383634 24.15851298 -19 26 C-19.99 25.67 -20.98 25.34 -22 25 C-21.03900391 24.48953125 -21.03900391 24.48953125 -20.05859375 23.96875 C-9.45384775 18.02629919 -4.47373597 11.21526436 0 0 Z " fill="#010202" transform="translate(250,166)"/>
<path d="M0 0 C1.22228453 3.74207109 0.99531732 7.21869781 0.875 11.125 C0.75608029 17.54118756 1.63797717 23.02464462 4 29 C3.34 29.33 2.68 29.66 2 30 C1.87625 29.195625 1.7525 28.39125 1.625 27.5625 C1.41875 26.716875 1.2125 25.87125 1 25 C0.34 24.67 -0.32 24.34 -1 24 C-2.13685741 19.27878325 -2.18307934 14.57736337 -2.1875 9.75 C-2.19974609 9.03070313 -2.21199219 8.31140625 -2.22460938 7.5703125 C-2.22982924 5.71204014 -2.12264513 3.85422803 -2 2 C-1.34 1.34 -0.68 0.68 0 0 Z " fill="#010102" transform="translate(66,205)"/>
<path d="M0 0 C0.66 0 1.32 0 2 0 C5.07106914 9.78903289 5.41453803 19.61910669 1 29 C0.34 28.34 -0.32 27.68 -1 27 C-0.77183594 26.50113281 -0.54367187 26.00226563 -0.30859375 25.48828125 C3.07854542 17.02802781 1.87711777 8.73830687 0 0 Z " fill="#000102" transform="translate(257,95)"/>
<path d="M0 0 C0.66 0.33 1.32 0.66 2 1 C2 1.66 2 2.32 2 3 C1.175 3.350625 0.35 3.70125 -0.5 4.0625 C-6.54783987 7.09360264 -12.03133779 11.8771342 -15 18 C-15.6875 16.25 -15.6875 16.25 -16 14 C-14.2426201 10.92458518 -13.42054006 10.14018002 -10 9 C-10 8.34 -10 7.68 -10 7 C-7.8125 5.2734375 -7.8125 5.2734375 -5 3.375 C-4.071875 2.74335938 -3.14375 2.11171875 -2.1875 1.4609375 C-1.1046875 0.73777344 -1.1046875 0.73777344 0 0 Z " fill="#010203" transform="translate(84,20)"/>
<path d="M0 0 C0.33 0 0.66 0 1 0 C1.04898437 0.77085938 1.09796875 1.54171875 1.1484375 2.3359375 C1.22320312 3.33882813 1.29796875 4.34171875 1.375 5.375 C1.44460938 6.37273437 1.51421875 7.37046875 1.5859375 8.3984375 C1.76363964 11.15508879 1.76363964 11.15508879 4 13 C3.34 13 2.68 13 2 13 C2.60183749 15.02045442 3.27306096 17.02111039 4 19 C4.66 19.33 5.32 19.66 6 20 C6 22.31 6 24.62 6 27 C2.58878367 25.29439184 2.04962947 21.86590283 0.8203125 18.41015625 C-0.64843538 12.30436149 -0.30348252 6.24668189 0 0 Z " fill="#020303" transform="translate(11,104)"/>
<path d="M0 0 C7.3927665 0.48477157 7.3927665 0.48477157 10.0625 2.75 C11.26985757 5.64765818 11.07827434 7.07325535 10 10 C7 12 7 12 3.8125 11.625 C2.4203125 11.315625 2.4203125 11.315625 1 11 C4.06117568 8.37613513 4.73173127 8 9 8 C9 6.68 9 5.36 9 4 C6.03 3.01 3.06 2.02 0 1 C0 0.67 0 0.34 0 0 Z " fill="#020304" transform="translate(179,10)"/>
<path d="M0 0 C-1 2 -1 2 -3.8359375 3.10546875 C-5.00382813 3.46253906 -6.17171875 3.81960938 -7.375 4.1875 C-8.53773438 4.55230469 -9.70046875 4.91710937 -10.8984375 5.29296875 C-14 6 -14 6 -17 5 C-15.75264433 4.3490741 -14.50198168 3.70448331 -13.25 3.0625 C-12.55390625 2.70285156 -11.8578125 2.34320313 -11.140625 1.97265625 C-7.34995505 0.2502533 -4.14794558 -0.11522071 0 0 Z M-19 6 C-18.34 6.33 -17.68 6.66 -17 7 C-19.97 9.475 -19.97 9.475 -23 12 C-23 11.01 -23 10.02 -23 9 C-21 7.3125 -21 7.3125 -19 6 Z " fill="#010203" transform="translate(169,10)"/>
<path d="M0 0 C0.66 0.33 1.32 0.66 2 1 C4.01130896 7.03392689 5.1703506 14.27520614 2.5625 20.25 C2.046875 21.1575 1.53125 22.065 1 23 C0.34 23 -0.32 23 -1 23 C-0.83628906 22.36707031 -0.67257813 21.73414062 -0.50390625 21.08203125 C0.17453601 16.93248907 0.10555375 12.88358502 0.0625 8.6875 C0.05798828 7.85154297 0.05347656 7.01558594 0.04882812 6.15429688 C0.03710548 4.10283351 0.01917203 2.05140727 0 0 Z " fill="#020204" transform="translate(249,99)"/>
<path d="M0 0 C1.36171954 2.72343908 0.61643969 4.01449799 0 7 C-0.26169757 9.76661851 -0.41124846 12.53790212 -0.5625 15.3125 C-0.60568359 16.05306641 -0.64886719 16.79363281 -0.69335938 17.55664062 C-0.79870432 19.37091464 -0.89978316 21.1854355 -1 23 C-3.52385523 20.47614477 -3.28695241 18.83192376 -3.32226562 15.38085938 C-3.31904297 14.65705078 -3.31582031 13.93324219 -3.3125 13.1875 C-3.32861328 12.47529297 -3.34472656 11.76308594 -3.36132812 11.02929688 C-3.36552903 6.48812346 -2.71864979 3.65116818 0 0 Z " fill="#000201" transform="translate(67,38)"/>
<path d="M0 0 C5.17949008 5.17949008 4.57147846 14.13237854 5 21 C4.34 21.33 3.68 21.66 3 22 C2.87882813 20.98679687 2.75765625 19.97359375 2.6328125 18.9296875 C2.46386217 17.5780849 2.29457331 16.22652458 2.125 14.875 C2.04636719 14.20984375 1.96773437 13.5446875 1.88671875 12.859375 C1.35611974 8.69621356 0.45813446 4.93328708 -1 1 C-0.67 0.67 -0.34 0.34 0 0 Z " fill="#010103" transform="translate(212,35)"/>
<path d="M0 0 C1.32 1.32 2.64 2.64 4 4 C3.51789062 4.88042969 3.03578125 5.76085937 2.5390625 6.66796875 C1.90089698 7.84106713 1.26288423 9.01424864 0.625 10.1875 C-0.00148438 11.33605469 -0.62796875 12.48460937 -1.2734375 13.66796875 C-2.69693755 16.41513062 -3.92058447 19.10520381 -5 22 C-6 20 -6 20 -5.328125 17.609375 C-4.97234375 16.66578125 -4.6165625 15.7221875 -4.25 14.75 C-3.88003906 13.76515625 -3.51007812 12.7803125 -3.12890625 11.765625 C-2 9 -2 9 -0.1875 5.5 C1.37200333 2.96154255 1.37200333 2.96154255 0 0 Z " fill="#010103" transform="translate(17,131)"/>
<path d="M0 0 C5.00462329 6.59700342 5.00462329 6.59700342 4.9765625 9.04296875 C4.65104167 11.02864583 4.32552083 13.01432292 4 15 C3.34 15 2.68 15 2 15 C1.67 15.99 1.34 16.98 1 18 C0.01 18.33 -0.98 18.66 -2 19 C-2.66 18.34 -3.32 17.68 -4 17 C-3.34 16.67 -2.68 16.34 -2 16 C-1.34 16.33 -0.68 16.66 0 17 C1.07525194 14.34771188 2.09456151 11.71631546 3 9 C2.0126546 7.32580562 1.01187895 5.65948148 0 4 C0 2.68 0 1.36 0 0 Z " fill="#010201" transform="translate(59,100)"/>
<path d="M0 0 C7.00004889 0.28688725 11.91026866 1.50404312 18 5 C14.52176885 6.15941038 12.54104422 5.70820884 9 5 C9 4.34 9 3.68 9 3 C4.545 2.01 4.545 2.01 0 1 C0 0.67 0 0.34 0 0 Z " fill="#010203" transform="translate(101,10)"/>
<path d="M0 0 C0.66 0.66 1.32 1.32 2 2 C1.34 3.65 0.68 5.3 0 7 C-0.66 7 -1.32 7 -2 7 C-1.34 4.69 -0.68 2.38 0 0 Z M-3 7 C-2.67 7.66 -2.34 8.32 -2 9 C-2.99609375 10.9453125 -2.99609375 10.9453125 -4.4375 13.125 C-4.91058594 13.84945312 -5.38367188 14.57390625 -5.87109375 15.3203125 C-6.24363281 15.87460938 -6.61617187 16.42890625 -7 17 C-7.99 16.67 -8.98 16.34 -10 16 C-8.76302083 14.53515625 -7.52604167 13.0703125 -6.2890625 11.60546875 C-5.10798901 10.1344954 -4.04641471 8.56962206 -3 7 Z " fill="#010203" transform="translate(204,226)"/>
<path d="M0 0 C-3.0333779 2.02225194 -5.61344489 2.99347524 -9.0625 4.125 C-10.12597656 4.47820312 -11.18945312 4.83140625 -12.28515625 5.1953125 C-15 6 -15 6 -17 6 C-17 4 -17 4 -15.5 2.4375 C-10.85257105 -0.23477165 -5.26512783 -0.16453524 0 0 Z " fill="#020303" transform="translate(53,126)"/>
<path d="M0 0 C-2.21953964 2.21953964 -3.91053654 2.91824754 -6.8125 4.0625 C-8.09060547 4.57490234 -8.09060547 4.57490234 -9.39453125 5.09765625 C-11.92216051 5.97304209 -14.36794434 6.54163483 -17 7 C-12.02368697 2.62687642 -6.82232737 -0.62021158 0 0 Z " fill="#000202" transform="translate(46,118)"/>
<path d="M0 0 C3 1 3 1 4.6875 3.375 C6.47304056 8.30649297 6.24928545 12.81116953 6 18 C5.67 18 5.34 18 5 18 C4.89042969 17.28714844 4.78085938 16.57429688 4.66796875 15.83984375 C3.72174813 10.12405578 2.54615476 5.20804382 0 0 Z " fill="#010203" transform="translate(201,200)"/>
<path d="M0 0 C0.66 0.61875 1.32 1.2375 2 1.875 C5.70411034 4.49874482 8.57924515 5.10086342 13 6 C13 6.33 13 6.66 13 7 C5.80714661 7.48765108 5.80714661 7.48765108 2 5.1875 C0 3 0 3 0 0 Z " fill="#010204" transform="translate(204,187)"/>
<path d="M0 0 C0.33 1.32 0.66 2.64 1 4 C3.97 4 6.94 4 10 4 C10 4.66 10 5.32 10 6 C6.37 6 2.74 6 -1 6 C-1.33 5.34 -1.66 4.68 -2 4 C-1.0625 1.875 -1.0625 1.875 0 0 Z " fill="#000303" transform="translate(214,62)"/>
<path d="M0 0 C8.81548975 5.96583144 8.81548975 5.96583144 10 11 C9.34 10.67 8.68 10.34 8 10 C8 9.34 8 8.68 8 8 C7.443125 7.773125 6.88625 7.54625 6.3125 7.3125 C3.36753316 5.64103234 1.31843456 3.44723648 -1 1 C-0.67 0.67 -0.34 0.34 0 0 Z " fill="#010102" transform="translate(122,17)"/>
<path d="M0 0 C4.57263314 0.42536122 7.99065362 1.80440556 12 4 C8.98968256 4.93423645 8.13349732 5.04449911 5 4 C5 3.34 5 2.68 5 2 C4.38125 2.20625 3.7625 2.4125 3.125 2.625 C2.42375 2.74875 1.7225 2.8725 1 3 C0.34 2.34 -0.32 1.68 -1 1 C-0.67 0.67 -0.34 0.34 0 0 Z " fill="#010203" transform="translate(185,176)"/>
<path d="M0 0 C3.875 4.75 3.875 4.75 5 7 C7.01669827 8.13350534 7.01669827 8.13350534 9 9 C6.625 9.625 6.625 9.625 4 10 C1.997499 7.997499 1.06784629 6.593341 0 4 C0 2.68 0 1.36 0 0 Z " fill="#010202" transform="translate(208,109)"/>
<path d="M0 0 C0.66 0.33 1.32 0.66 2 1 C3.70702735 1.06996014 5.41668003 1.08440154 7.125 1.0625 C8.03507812 1.05347656 8.94515625 1.04445313 9.8828125 1.03515625 C10.93082031 1.01775391 10.93082031 1.01775391 12 1 C12 1.66 12 2.32 12 3 C7.71 3 3.42 3 -1 3 C-1.33 2.34 -1.66 1.68 -2 1 C-1.34 0.67 -0.68 0.34 0 0 Z " fill="#020302" transform="translate(93,257)"/>
<path d="M0 0 C1.54571278 2.31856917 2.79618552 4.50638429 4 7 C4.99 7 5.98 7 7 7 C6.67 7.99 6.34 8.98 6 10 C4.02 9.34 2.04 8.68 0 8 C-0.38063221 5.6739143 -0.71269945 3.33944736 -1 1 C-0.67 0.67 -0.34 0.34 0 0 Z " fill="#010202" transform="translate(22,118)"/>
<path d="M0 0 C0.53625 0.350625 1.0725 0.70125 1.625 1.0625 C4.73274763 2.28924249 6.79431703 1.72856431 10 1 C9.67 1.99 9.34 2.98 9 4 C6.1875 4.625 6.1875 4.625 3 5 C2.01 4.34 1.02 3.68 0 3 C0 2.01 0 1.02 0 0 Z " fill="#010101" transform="translate(99,94)"/>
<path d="M0 0 C0.99 0.66 1.98 1.32 3 2 C2.236875 2.37125 1.47375 2.7425 0.6875 3.125 C-2.52043115 5.3630915 -3.4977816 7.44211433 -5 11 C-5.68359375 9.234375 -5.68359375 9.234375 -6 7 C-4.78515625 5.078125 -4.78515625 5.078125 -3.0625 3.25 C-2.49660156 2.63640625 -1.93070312 2.0228125 -1.34765625 1.390625 C-0.90292969 0.93171875 -0.45820312 0.4728125 0 0 Z " fill="#010203" transform="translate(114,82)"/>
<path d="M0 0 C0.33 0.66 0.66 1.32 1 2 C0.00390625 4.3828125 0.00390625 4.3828125 -1.4375 7.125 C-1.91058594 8.03507812 -2.38367188 8.94515625 -2.87109375 9.8828125 C-3.24363281 10.58148438 -3.61617187 11.28015625 -4 12 C-4.66 11.01 -5.32 10.02 -6 9 C-4.02 6.03 -2.04 3.06 0 0 Z " fill="#010102" transform="translate(146,33)"/>
<path d="M0 0 C0.33 0.66 0.66 1.32 1 2 C1.66 2.33 2.32 2.66 3 3 C2.34 3 1.68 3 1 3 C1.350625 3.763125 1.70125 4.52625 2.0625 5.3125 C3 8 3 8 2 11 C1.34 11 0.68 11 0 11 C0 7.37 0 3.74 0 0 Z " fill="#000304" transform="translate(250,154)"/>
<path d="M0 0 C0.66 0.66 1.32 1.32 2 2 C-2.95 4.475 -2.95 4.475 -8 7 C-8.33 6.34 -8.66 5.68 -9 5 C-8.43410156 4.72285156 -7.86820313 4.44570312 -7.28515625 4.16015625 C-6.55167969 3.79792969 -5.81820312 3.43570313 -5.0625 3.0625 C-3.96615234 2.52302734 -3.96615234 2.52302734 -2.84765625 1.97265625 C-1.03750973 1.13628173 -1.03750973 1.13628173 0 0 Z " fill="#010202" transform="translate(196,251)"/>
<path d="M0 0 C1.32 0.33 2.64 0.66 4 1 C3.67 2.32 3.34 3.64 3 5 C2.67 4.34 2.34 3.68 2 3 C0.68 3.99 -0.64 4.98 -2 6 C-1.49396008 3.83125748 -1.00016187 2.00032373 0 0 Z " fill="#000102" transform="translate(134,236)"/>
<path d="M0 0 C8.57142857 -0.28571429 8.57142857 -0.28571429 12 2 C7.48281619 3.36884358 4.41225737 2.47075246 0 1 C0 0.67 0 0.34 0 0 Z " fill="#030404" transform="translate(218,117)"/>
<path d="M0 0 C3.3 0.99 6.6 1.98 10 3 C10 3.66 10 4.32 10 5 C6.44219804 4.39009109 3.3171411 3.4216319 0 2 C0 1.34 0 0.68 0 0 Z " fill="#010203" transform="translate(157,245)"/>
<path d="M0 0 C0.99 0.33 1.98 0.66 3 1 C3.6875 3.0625 3.6875 3.0625 4 5 C2.35 4.67 0.7 4.34 -1 4 C-1 1 -1 1 0 0 Z " fill="#030504" transform="translate(13,164)"/>
<path d="" fill="#FFFFFF" transform="translate(0,0)"/>
<path d="" fill="#FFFFFF" transform="translate(0,0)"/>
<path d="" fill="#FFFFFF" transform="translate(0,0)"/>
<path d="" fill="#FFFFFF" transform="translate(0,0)"/>
<path d="" fill="#FFFFFF" transform="translate(0,0)"/>
<path d="" fill="#FFFFFF" transform="translate(0,0)"/>
<path d="" fill="#FFFFFF" transform="translate(0,0)"/>
<path d="" fill="#FFFFFF" transform="translate(0,0)"/>
<path d="" fill="#FFFFFF" transform="translate(0,0)"/>
<path d="" fill="#FFFFFF" transform="translate(0,0)"/>
<path d="" fill="#FFFFFF" transform="translate(0,0)"/>
<path d="" fill="#FFFFFF" transform="translate(0,0)"/>
<path d="" fill="#FFFFFF" transform="translate(0,0)"/>
<path d="" fill="#FFFFFF" transform="translate(0,0)"/>
<path d="" fill="#FFFFFF" transform="translate(0,0)"/>
<path d="" fill="#FFFFFF" transform="translate(0,0)"/>
<path d="" fill="#FFFFFF" transform="translate(0,0)"/>
<path d="" fill="#FFFFFF" transform="translate(0,0)"/>
<path d="" fill="#FFFFFF" transform="translate(0,0)"/>
<path d="" fill="#FFFFFF" transform="translate(0,0)"/>
<path d="" fill="#FFFFFF" transform="translate(0,0)"/>
<path d="" fill="#FFFFFF" transform="translate(0,0)"/>
<path d="" fill="#FFFFFF" transform="translate(0,0)"/>
<path d="" fill="#FFFFFF" transform="translate(0,0)"/>
<path d="" fill="#FFFFFF" transform="translate(0,0)"/>
<path d="" fill="#FFFFFF" transform="translate(0,0)"/>
<path d="" fill="#FFFFFF" transform="translate(0,0)"/>
<path d="" fill="#FFFFFF" transform="translate(0,0)"/>
<path d="" fill="#FFFFFF" transform="translate(0,0)"/>
<path d="" fill="#FFFFFF" transform="translate(0,0)"/>
<path d="" fill="#FFFFFF" transform="translate(0,0)"/>
<path d="" fill="#FFFFFF" transform="translate(0,0)"/>
<path d="" fill="#FFFFFF" transform="translate(0,0)"/>
<path d="" fill="#FFFFFF" transform="translate(0,0)"/>
<path d="" fill="#FFFFFF" transform="translate(0,0)"/>
<path d="" fill="#FFFFFF" transform="translate(0,0)"/>
<path d="" fill="#FFFFFF" transform="translate(0,0)"/>
<path d="" fill="#FFFFFF" transform="translate(0,0)"/>
<path d="" fill="#FFFFFF" transform="translate(0,0)"/>
<path d="" fill="#FFFFFF" transform="translate(0,0)"/>
<path d="" fill="#FFFFFF" transform="translate(0,0)"/>
<path d="" fill="#FFFFFF" transform="translate(0,0)"/>
<path d="" fill="#FFFFFF" transform="translate(0,0)"/>
<path d="" fill="#FFFFFF" transform="translate(0,0)"/>
<path d="" fill="#FFFFFF" transform="translate(0,0)"/>
<path d="" fill="#FFFFFF" transform="translate(0,0)"/>
<path d="" fill="#FFFFFF" transform="translate(0,0)"/>
<path d="" fill="#FFFFFF" transform="translate(0,0)"/>
<path d="" fill="#FFFFFF" transform="translate(0,0)"/>
<path d="" fill="#FFFFFF" transform="translate(0,0)"/>
<path d="" fill="#FFFFFF" transform="translate(0,0)"/>
<path d="" fill="#FFFFFF" transform="translate(0,0)"/>
<path d="" fill="#FFFFFF" transform="translate(0,0)"/>
<path d="" fill="#FFFFFF" transform="translate(0,0)"/>
<path d="" fill="#FFFFFF" transform="translate(0,0)"/>
<path d="" fill="#FFFFFF" transform="translate(0,0)"/>
<path d="" fill="#FFFFFF" transform="translate(0,0)"/>
<path d="" fill="#FFFFFF" transform="translate(0,0)"/>
<path d="" fill="#FFFFFF" transform="translate(0,0)"/>
<path d="" fill="#FFFFFF" transform="translate(0,0)"/>
<path d="" fill="#FFFFFF" transform="translate(0,0)"/>
<path d="" fill="#FFFFFF" transform="translate(0,0)"/>
<path d="" fill="#FFFFFF" transform="translate(0,0)"/>
<path d="" fill="#FFFFFF" transform="translate(0,0)"/>
<path d="" fill="#FFFFFF" transform="translate(0,0)"/>
<path d="" fill="#FFFFFF" transform="translate(0,0)"/>
<path d="" fill="#FFFFFF" transform="translate(0,0)"/>
<path d="" fill="#FFFFFF" transform="translate(0,0)"/>
<path d="" fill="#FFFFFF" transform="translate(0,0)"/>
<path d="" fill="#FFFFFF" transform="translate(0,0)"/>
<path d="" fill="#FFFFFF" transform="translate(0,0)"/>
<path d="" fill="#FFFFFF" transform="translate(0,0)"/>
<path d="" fill="#FFFFFF" transform="translate(0,0)"/>
<path d="" fill="#FFFFFF" transform="translate(0,0)"/>
<path d="" fill="#FFFFFF" transform="translate(0,0)"/>
<path d="" fill="#FFFFFF" transform="translate(0,0)"/>
<path d="" fill="#FFFFFF" transform="translate(0,0)"/>
</svg>
