<?xml version="1.0" encoding="UTF-8"?>
<svg version="1.1" xmlns="http://www.w3.org/2000/svg" width="1265" height="1294">
<path d="M0 0 C417.45 0 834.9 0 1265 0 C1265 427.02 1265 854.04 1265 1294 C847.55 1294 430.1 1294 0 1294 C0 866.98 0 439.96 0 0 Z " fill="#000000" transform="translate(0,0)"/>
<path d="M0 0 C1.88332031 0.55300781 1.88332031 0.55300781 3.8046875 1.1171875 C12.70033682 3.84698533 20.77151631 7.69676471 29 12 C29.96035156 12.44859375 30.92070313 12.8971875 31.91015625 13.359375 C45.75127021 19.83252321 58.53460825 28.94488807 70 39 C70.84820313 39.73863281 71.69640625 40.47726563 72.5703125 41.23828125 C75.07931052 43.45955014 77.54802617 45.71602438 80 48 C81.10794922 49.02673828 81.10794922 49.02673828 82.23828125 50.07421875 C95.94749745 63.24772846 106.52182157 79.62509824 116 96 C116.51046875 95.030625 117.0209375 94.06125 117.546875 93.0625 C129.77376553 70.32718563 146.67649641 49.91753101 167 34 C167.53592773 33.57702637 168.07185547 33.15405273 168.62402344 32.71826172 C181.90774121 22.3174426 196.48060998 13.62656846 212 7 C213.0828125 6.50757812 214.165625 6.01515625 215.28125 5.5078125 C227.10578582 0.42785415 239.43778278 -2.35264111 252 -5 C252.83595703 -5.18224121 253.67191406 -5.36448242 254.53320312 -5.55224609 C266.12313785 -7.99722603 277.6971172 -8.27863415 289.5 -8.3125 C290.22879364 -8.31626648 290.95758728 -8.32003296 291.70846558 -8.32391357 C300.65216502 -8.34736965 309.2112979 -7.79990305 318 -6 C318.96389648 -5.81783936 319.92779297 -5.63567871 320.92089844 -5.44799805 C323.82917933 -4.89100556 326.72673092 -4.29425145 329.625 -3.6875 C330.5840625 -3.49994141 331.543125 -3.31238281 332.53125 -3.11914062 C340.94636285 -1.34603758 349.03781835 1.13840079 354.625 8 C357.99928529 13.74203662 357.94031814 19.54042322 357 26 C354.99211108 33.20961284 349.9489726 37.7137527 343.625 41.375 C335.87288711 43.22074116 328.60268022 41.46193471 321.0625 39.5625 C282.57846698 29.98842349 242.44966846 37.68659558 208.7265625 57.96875 C201.74455327 62.49179968 195.3119639 67.59107518 189 73 C187.75089844 74.04607422 187.75089844 74.04607422 186.4765625 75.11328125 C157.45632587 100.15124566 141.41134225 137.29610592 138 175 C137.49910628 184.64752145 137.57287635 194.31362797 137.59316695 203.97143841 C137.59795978 207.8269373 137.58533599 211.68238925 137.57514954 215.53787231 C137.55807759 223.06169384 137.5570967 230.58543143 137.56236244 238.10926726 C137.56642513 244.22898897 137.56493588 250.34868612 137.55961418 256.46840668 C137.55886576 257.34364219 137.55811734 258.2188777 137.55734624 259.12063549 C137.55581458 260.89931912 137.55427623 262.67800274 137.55273127 264.45668635 C137.53904972 281.08081198 137.54441452 297.70489035 137.55591648 314.32901487 C137.56585706 329.50685182 137.55288621 344.684567 137.52898229 359.86238518 C137.50455208 375.49343978 137.49499226 391.12443775 137.50163502 406.75551105 C137.50511689 415.51281706 137.50296298 424.27002939 137.48538399 433.02732086 C137.47061334 440.47701334 137.47009041 447.92654601 137.4874549 455.37623551 C137.49592506 459.16975592 137.49821286 462.96299142 137.48280334 466.75649643 C136.81162528 494.70196474 136.81162528 494.70196474 149 519 C149.52335938 519.70511719 150.04671875 520.41023437 150.5859375 521.13671875 C157.09480423 529.47124323 167.52849823 535.42927473 178 537 C194.27791445 538.35926405 208.26759749 535.24344768 221.25 524.8125 C231.18227469 515.55187503 235.69558919 503.50470714 237 490.3125 C237.93023097 481.14593211 239.27463484 475.98279099 246.5 470.0625 C251.99644492 465.93075459 257.23568639 465.21864364 264 466 C270.01637513 467.84265364 275.40496574 471.84064002 279 477 C285.24287973 494.58411123 278.67912819 514.88034541 271.00927734 531.03369141 C259.81040306 552.85172079 240.13431733 568.31478644 217.5234375 576.89453125 C208.04609624 579.8680208 199.39676461 581.53390671 189.4375 581.4375 C188.30707275 581.42847656 187.17664551 581.41945313 186.01196289 581.41015625 C168.24261963 581.04795292 151.93456116 576.9563741 137 567 C136.99019453 615.2220234 137.01203569 663.44394348 137.07579029 711.66592868 C137.08330553 717.37054723 137.09056117 723.07516607 137.09765625 728.77978516 C137.099073 729.91537993 137.10048975 731.0509747 137.10194944 732.22098143 C137.12421354 750.56190088 137.12549045 768.90276397 137.11888863 787.24369316 C137.11257661 806.09021659 137.12910283 824.93662231 137.16643608 843.78311026 C137.18872901 855.39437046 137.1936161 867.00536152 137.17559664 878.61663027 C137.16492141 886.599783 137.17660813 894.58271663 137.20516153 902.56582443 C137.22095015 907.15847559 137.22757082 911.75060439 137.20739174 916.34325027 C137.12440736 936.82685372 138.25348641 955.17238193 144 975 C144.56406834 977.22877033 145.12713508 979.45779566 145.6875 981.6875 C153.19969297 1004.40956516 166.12301862 1024.21489739 183 1041 C183.87011719 1041.87011719 184.74023438 1042.74023438 185.63671875 1043.63671875 C207.28364474 1064.24821629 235.55118729 1077.50135646 265 1082 C266.16660156 1082.18175781 267.33320312 1082.36351562 268.53515625 1082.55078125 C287.2858544 1084.79181127 306.72120123 1083.50882447 325 1079 C326.155 1078.72285156 327.31 1078.44570312 328.5 1078.16015625 C366.30831471 1067.69535486 398.89842853 1042.68810847 418.375 1008.6875 C419.59456743 1006.46445957 420.80407985 1004.23585072 422 1002 C422.47050781 1001.16339844 422.94101562 1000.32679688 423.42578125 999.46484375 C426.83811941 993.1366996 428.86050936 986.50233103 430.88671875 979.63671875 C432 976 432 976 433.01171875 973.5703125 C444.94057733 942.54585025 438.9310923 902.3975492 426.04589844 872.80908203 C410.81978606 839.22024715 383.46220927 809.00212173 348.45703125 795.6484375 C347.33683594 795.24882813 346.21664062 794.84921875 345.0625 794.4375 C338.11059329 791.89787356 333.38265067 788.30496706 329.0625 782.3125 C326.54039495 776.82321254 325.92169021 770.72257264 327.61328125 764.8828125 C330.49778266 758.3513864 335.5703925 753.67831856 341.9375 750.5625 C351.14333406 748.87163252 356.82534944 750.7801326 365.1640625 755.06298828 C367.0875637 756.04469009 369.02550379 756.99162775 370.96875 757.93359375 C383.36350243 763.97373639 395.02058499 770.60684719 406 779 C406.79792969 779.60328125 407.59585938 780.2065625 408.41796875 780.828125 C419.88983943 789.73613551 430.11361384 799.51547551 439 811 C440.0151696 812.19234543 441.03494489 813.38081162 442.0625 814.5625 C444 817 444 817 444 819 C448.02018644 819.81572257 452.04125772 820.62699975 456.0625 821.4375 C457.19623047 821.66759766 458.32996094 821.89769531 459.49804688 822.13476562 C499.53913746 830.18967889 539.07533772 821.60827065 573.12597656 799.35571289 C578.33638981 795.8593304 583.23132519 792.0727488 588 788 C588.80824219 787.32582031 589.61648438 786.65164063 590.44921875 785.95703125 C617.26757311 762.84356729 635.7465739 726.99914735 638.82275391 691.72705078 C640.33213052 668.50427289 639.12851161 645.91420942 631 624 C630.74202637 623.30277832 630.48405273 622.60555664 630.21826172 621.88720703 C624.17902039 605.86568888 612.2516238 577.1258119 596 569 C596 568.34 596 567.68 596 567 C595.43539063 566.75636719 594.87078125 566.51273438 594.2890625 566.26171875 C591.57310932 564.76470019 589.62720762 562.94366063 587.375 560.8125 C557.10498232 533.19000574 518.67303254 525.21251907 479 524 C479.309375 525.11375 479.61875 526.2275 479.9375 527.375 C485.57941611 550.2945044 483.08804229 578.25736399 478 601 C477.81276367 601.84949219 477.62552734 602.69898438 477.43261719 603.57421875 C475.0429458 613.95835211 472.04896688 621.39126333 463.375 628 C456.90987896 629.91559142 450.00647155 629.92927303 443.5625 627.9375 C437.97300931 623.71129972 434.06509046 618.76890762 432 612 C431.21341404 605.63083868 432.36202362 600.2678283 434.1328125 594.1796875 C444.30224309 556.89177535 436.71372427 517.1730183 418.234375 483.80859375 C412.38270136 473.60467265 405.13588999 464.4725475 397 456 C396.23171875 455.18015625 395.4634375 454.3603125 394.671875 453.515625 C386.77978695 445.31803677 377.99864838 438.608488 368.5 432.375 C364.01614218 429.21293089 360.71110631 426.33009615 359 421 C358.09692369 414.5655813 357.75808824 408.1984172 361.125 402.4375 C365.62393284 396.51918553 370.52512536 392.89100901 377.9921875 391.67578125 C389.70852218 390.73764057 399.32971051 400.30023085 408 407 C410.31736727 408.69105179 412.65478048 410.34768625 415 412 C415.37898437 410.97519531 415.37898437 410.97519531 415.765625 409.9296875 C416.92540056 407.17705564 418.26592228 404.60100408 419.71557617 401.99169922 C426.5850845 389.59513073 431.33350147 377.30989213 434.08862305 363.40771484 C435.70257199 355.76023693 438.5316866 349.10699155 445.1875 344.5625 C445.86167969 344.08941406 446.53585937 343.61632812 447.23046875 343.12890625 C452.1528054 339.98860759 457.31784527 340.28887594 463 341 C469.89743704 343.65650945 474.30910817 347.68976558 478 354 C484.13009994 372.39029981 469.9367937 400.34849326 462.04199219 416.92919922 C458.05120258 424.86028579 453.5550775 432.70912389 448.1328125 439.74609375 C445.75148768 442.62692784 445.75148768 442.62692784 446.21191406 444.9362793 C447.09081339 447.23780842 448.17443756 449.18105103 449.4765625 451.2734375 C449.98316406 452.09972656 450.48976563 452.92601562 451.01171875 453.77734375 C452.06320868 455.47042076 453.1152644 457.16314656 454.16796875 458.85546875 C458.56508578 466.02971233 462.32474927 473.43944498 466 481 C467.08716309 480.98952637 468.17432617 480.97905273 469.29443359 480.96826172 C473.42086343 480.93140371 477.54727958 480.90886651 481.67382812 480.89013672 C483.44240789 480.88022602 485.21097196 480.86669357 486.97949219 480.84912109 C503.97820444 480.68474219 520.22728388 481.81310937 536.75 486.0625 C537.94173828 486.36704102 539.13347656 486.67158203 540.36132812 486.98535156 C565.10254809 493.5640565 594.54380212 505.75561697 612.59545898 524.671875 C613.92002507 526.22902158 613.92002507 526.22902158 616 526 C637.33812091 491.21205288 645.30089424 450.18893715 636 410 C634.65682191 404.54530964 632.943585 399.26783039 631 394 C630.75266113 393.31873047 630.50532227 392.63746094 630.25048828 391.93554688 C615.85373444 352.92965259 586.10287176 323.66450905 548.66894531 306.34008789 C541.35560681 303.1248074 533.72118456 300.99207694 526 299 C524.80761719 298.690625 523.61523438 298.38125 522.38671875 298.0625 C497.11300393 291.8851408 469.1333055 293.13010348 444.51049805 301.35180664 C438.15680916 303.40981592 432.0856843 304.65673796 425.7265625 302.078125 C420.06541814 298.83717246 416.58507234 294.3776085 413 289 C410.19340024 274.58046352 415.59042677 264.42508023 422.66796875 252.10546875 C427.69511556 243.24968595 431.04199876 233.74676405 433.6875 223.9375 C433.88666016 223.23818359 434.08582031 222.53886719 434.29101562 221.81835938 C437.40507958 210.49541863 438.40807317 199.41167518 438.375 187.6875 C438.37468277 186.64409958 438.37468277 186.64409958 438.37435913 185.57962036 C438.31912928 167.25875331 436.32544179 147.65088358 428 131 C427.29981881 123.93817259 427.00622611 117.5883156 431.37109375 111.71875 C436.6332638 106.16634036 441.53558625 102.95112205 449.25 102.6875 C456.12431007 102.81146297 460.8959082 105.55236117 465.6875 110.375 C470.15961656 115.86350669 471.96445496 122.31686436 474 129 C474.34804688 130.03511719 474.69609375 131.07023438 475.0546875 132.13671875 C485.65311538 165.53409033 484.87281501 203.29632531 475.57421875 236.86425781 C474.31231731 241.55775857 473.16841609 246.28252002 472 251 C472.89904053 250.97905273 473.79808105 250.95810547 474.72436523 250.93652344 C499.2483266 250.44307729 522.35251479 251.85773924 546 259 C546.89203125 259.24492187 547.7840625 259.48984375 548.703125 259.7421875 C576.44150415 267.50544456 602.2969587 284.27575578 623 304 C623.57008789 304.54285645 624.14017578 305.08571289 624.72753906 305.64501953 C651.92369675 331.7144995 674.21036658 368.02480331 680 405.8125 C680.43344373 408.61827414 680.870123 411.40876346 681.47938538 414.18229675 C682.75188028 420.00176524 683.32982727 425.51991398 683.37109375 431.46875 C683.38220688 432.33893768 683.39332001 433.20912537 683.4047699 434.10568237 C683.43167986 436.90397589 683.43815847 439.70158283 683.4375 442.5 C683.4385675 443.45819641 683.43963501 444.41639282 683.44073486 445.40362549 C683.41537669 461.17542143 682.04502718 475.70066334 678 491 C677.57122316 492.79647164 677.14411144 494.59334161 676.71875 496.390625 C671.55758684 517.11397144 661.97224648 539.73307294 648.125 556.234375 C646.81855939 557.91559694 646.81855939 557.91559694 647.0703125 559.87890625 C648.35539961 562.81084869 650.07218774 565.29102293 651.875 567.9375 C661.76907281 582.9481527 669.47536125 598.9025324 675 616 C675.31855957 616.98419922 675.31855957 616.98419922 675.64355469 617.98828125 C677.82956194 624.8779485 679.47087789 631.73789238 680.5078125 638.890625 C680.78690102 640.65375565 681.09074496 642.41448415 681.47251892 644.15826416 C682.74827958 649.98634199 683.32976464 655.51088513 683.37109375 661.46875 C683.38220688 662.33893768 683.39332001 663.20912537 683.4047699 664.10568237 C683.43167986 666.90397589 683.43815847 669.70158283 683.4375 672.5 C683.4385675 673.45819641 683.43963501 674.41639282 683.44073486 675.40362549 C683.41539612 691.16333487 682.07949502 705.71795469 678 721 C677.76474609 721.94439941 677.52949219 722.88879883 677.28710938 723.86181641 C674.54803456 734.85395757 671.11821716 745.07147865 665.93847656 755.15673828 C664.93816843 757.12144338 663.97846904 759.102762 663.0234375 761.08984375 C650.67148179 786.62240416 632.46074497 809.61644007 610 827 C609.37899414 827.48629883 608.75798828 827.97259766 608.11816406 828.47363281 C584.04360226 847.16202146 557.42559512 858.0162361 528 865 C527.21898926 865.18997559 526.43797852 865.37995117 525.63330078 865.57568359 C517.30121989 867.53373163 509.13384502 868.152326 500.58984375 868.09765625 C499.73693253 868.0962413 498.8840213 868.09482635 498.00526428 868.09336853 C495.31597184 868.08782939 492.62676672 868.0752888 489.9375 868.0625 C488.09961059 868.05747712 486.26171985 868.0529156 484.42382812 868.04882812 C479.94918578 868.03788 475.47460762 868.02065839 471 868 C471.2582959 868.66862061 471.5165918 869.33724121 471.78271484 870.02612305 C474.23833383 876.54996383 476.13357569 883.00787658 477.625 889.8125 C477.82867188 890.69486328 478.03234375 891.57722656 478.2421875 892.48632812 C481.06401839 905.08507949 482.33332605 917.36267 482.26074219 930.24072266 C482.25000954 932.49799439 482.2607151 934.7544707 482.2734375 937.01171875 C482.28267766 946.16983815 481.60225096 954.9589322 480 964 C479.85401367 964.84014648 479.70802734 965.68029297 479.55761719 966.54589844 C476.4162785 983.67980431 471.94924928 1000.57859009 463.96386719 1016.11962891 C462.94636584 1018.10463281 461.96192214 1020.10433714 460.9765625 1022.10546875 C452.85749385 1038.29891394 442.26018908 1052.70068282 430 1066 C429.46681152 1066.5784668 428.93362305 1067.15693359 428.38427734 1067.75292969 C402.36832118 1095.60467372 367.22140479 1115.08235652 330 1123 C329.16791016 1123.18481934 328.33582031 1123.36963867 327.47851562 1123.56005859 C313.27611235 1126.61414422 299.28795427 1127.39718839 284.8125 1127.4375 C283.98233368 1127.44358276 283.15216736 1127.44966553 282.29684448 1127.45593262 C272.86675283 1127.50119388 264.16094354 1127.0139511 254.97485352 1124.72631836 C252.03050957 1124.00744899 249.12650539 1123.53315114 246.125 1123.125 C210.00769849 1117.27332565 176.9508182 1095.81944738 151 1071 C150.32195313 1070.36320312 149.64390625 1069.72640625 148.9453125 1069.0703125 C135.51683328 1056.13689242 125.29518889 1040.03083301 116 1024 C113.63595847 1026.98735795 111.66196229 1030.13089064 109.68920898 1033.38037109 C102.26414665 1045.58313591 93.85148002 1056.62921716 84 1067 C83.5054834 1067.52706543 83.0109668 1068.05413086 82.50146484 1068.59716797 C73.75996676 1077.86204574 64.4915325 1085.77955277 54 1093 C53.37432129 1093.4326416 52.74864258 1093.8652832 52.10400391 1094.31103516 C30.37299358 1109.11496603 5.80881067 1119.23456089 -20 1124 C-21.15870605 1124.22647217 -21.15870605 1124.22647217 -22.34082031 1124.45751953 C-35.20507997 1126.89820081 -48.00857746 1127.31105214 -61.0625 1127.375 C-62.25064804 1127.38678284 -62.25064804 1127.38678284 -63.46279907 1127.39880371 C-72.37994663 1127.46767895 -80.54837324 1127.07986028 -89.21923828 1124.71020508 C-92.09088188 1123.97678881 -94.86663522 1123.61056698 -97.8125 1123.3125 C-113.73596216 1120.99073152 -129.82073243 1114.44836851 -144 1107 C-144.70286133 1106.63680664 -145.40572266 1106.27361328 -146.12988281 1105.89941406 C-182.09300821 1087.17738823 -209.73982769 1058.52887105 -229 1023 C-229.78503906 1021.55560547 -229.78503906 1021.55560547 -230.5859375 1020.08203125 C-254.15662137 974.87370902 -256.3935863 922.33389044 -242 874 C-241.35008709 871.99449317 -240.69245378 869.99121877 -240 868 C-241.45019531 868.24169922 -241.45019531 868.24169922 -242.9296875 868.48828125 C-260.32163368 870.95105057 -280.56700995 869.51656858 -297.4140625 864.703125 C-299.94853018 864.01399481 -302.40180307 863.6177448 -305 863.25 C-319.20379716 860.76638807 -333.25302496 854.56089672 -346 848 C-346.75651855 847.61408691 -347.51303711 847.22817383 -348.29248047 846.83056641 C-350.72789131 845.57530627 -353.14695959 844.29304187 -355.5625 843 C-356.31289551 842.60901123 -357.06329102 842.21802246 -357.83642578 841.81518555 C-363.84548087 838.51555235 -368.2295109 834.46050142 -371.375 828.3125 C-372.65603356 821.52302213 -373.47239381 814.64585942 -369.8125 808.5 C-366.4423704 803.89829329 -361.86223471 799.63072955 -356.19921875 798.3828125 C-344.63862821 797.53409284 -337.16689501 802.21792096 -327.3828125 807.9453125 C-320.54243373 811.9296942 -313.5031113 814.56148883 -306 817 C-304.8965625 817.37511719 -303.793125 817.75023437 -302.65625 818.13671875 C-287.75917829 822.99996182 -273.87621972 824.5429455 -258.3125 824.4375 C-257.43347015 824.4361203 -256.55444031 824.4347406 -255.64877319 824.43331909 C-242.68843691 824.39567588 -230.53093677 823.52565339 -218 820 C-217.05511719 819.87496094 -216.11023438 819.74992188 -215.13671875 819.62109375 C-212.86121289 819.21872439 -212.86121289 819.21872439 -211.90625 817.2265625 C-211.6071875 816.49179687 -211.308125 815.75703125 -211 815 C-195.09495932 792.52195781 -171.57757811 773.28878906 -147 761 C-138.81083272 760.10570716 -132.56799793 760.84519834 -126 766 C-121.18984191 770.60973484 -118.71070241 775.01839169 -118.5625 781.6875 C-118.70704267 788.6680607 -120.56651226 793.6740673 -125.62109375 798.5703125 C-128.674927 800.9739748 -131.95988181 802.97462404 -135.2421875 805.05078125 C-165.12055688 823.95037471 -187.1523362 850.5473088 -199 884 C-199.23944336 884.6717627 -199.47888672 885.34352539 -199.72558594 886.03564453 C-211.23223243 919.22298347 -210.22949762 960.08672912 -195 992 C-194.71108887 992.61198242 -194.42217773 993.22396484 -194.12451172 993.85449219 C-177.53211277 1028.79582844 -151.54028894 1057.66936793 -114.875 1071.9375 C-112.91953002 1072.63310251 -110.96159077 1073.32185005 -109 1074 C-107.70723213 1074.51809399 -106.41542906 1075.03860786 -105.125 1075.5625 C-90.02334201 1081.16986668 -74.66561256 1083.42224846 -58.625 1083.375 C-57.92612671 1083.37445618 -57.22725342 1083.37391235 -56.50720215 1083.37335205 C-44.00269928 1083.32887357 -32.13646246 1082.08936685 -20 1079 C-19.13987305 1078.78569336 -18.27974609 1078.57138672 -17.39355469 1078.35058594 C-5.50052432 1075.30529639 5.34390866 1071.09033935 16 1065 C16.67015137 1064.61827637 17.34030273 1064.23655273 18.03076172 1063.84326172 C27.86723132 1058.15411082 36.65485289 1051.7016223 45 1044 C45.53189941 1043.51724609 46.06379883 1043.03449219 46.61181641 1042.53710938 C72.89757851 1018.45300672 90.40887146 982.63210691 93 947 C93.37821565 937.6783397 93.30638088 928.34314497 93.30078125 919.015625 C93.3030983 916.99207887 93.30660238 914.96853702 93.310188 912.94499278 C93.3212085 906.60377263 93.32176106 900.26261177 93.31567383 893.92138672 C93.30962101 887.41206991 93.32199524 880.90296854 93.3432439 874.39368844 C93.36092336 868.76776909 93.36685187 863.14191797 93.36360615 857.5159719 C93.36180545 854.17177102 93.36565029 850.82784673 93.37832069 847.48365021 C93.39071931 843.75618525 93.38387382 840.02921541 93.37231445 836.30175781 C93.37995819 835.21473068 93.38760193 834.12770355 93.39547729 833.00773621 C93.30613778 819.90946029 89.41662152 808.36947752 80.578125 798.49609375 C68.86439306 787.39124391 56.44549438 783.23349086 40.62207031 783.48046875 C26.15898484 784.06972505 15.72094731 789.8303931 5.6875 800.1875 C-1.6385742 808.89755537 -5.21717036 819.47837909 -6.37890625 830.640625 C-7.8705277 844.80752732 -7.8705277 844.80752732 -13 849 C-19.34401656 853.38334359 -25.33203489 855.18763096 -33 854 C-39.03679984 852.35573545 -43.4946924 849.1035352 -47.11328125 844.046875 C-49.78669326 839.214819 -49.60268643 834.40592943 -49.5 829 C-49.48718994 827.9783374 -49.47437988 826.9566748 -49.46118164 825.90405273 C-48.76919418 799.86930781 -35.34437287 778.47127612 -16.875 760.9375 C-2.0748963 748.20012853 17.50916066 740.18974603 37 739 C37.95519531 738.93554688 38.91039062 738.87109375 39.89453125 738.8046875 C58.79014768 738.14477074 76.75213113 743.62266542 93 753 C93.06866552 703.61392789 93.12152849 654.22786061 93.15319599 604.84175015 C93.15694811 599.011362 93.16083108 593.18097395 93.16479492 587.35058594 C93.16558185 586.1898599 93.16636878 585.02913385 93.16717956 583.8332343 C93.18023373 565.03854966 93.20388765 546.24389255 93.23145839 527.44922425 C93.25951226 508.16438605 93.27617623 488.87956227 93.28226548 469.59470451 C93.28638195 457.69478181 93.29938394 445.79493692 93.3237494 433.89503817 C93.33960634 425.73500513 93.34440044 417.57501232 93.34050413 409.41496499 C93.33858253 404.70695328 93.34152989 399.99907755 93.35761642 395.29109001 C93.37224661 390.97777558 93.37293214 386.66468819 93.36269668 382.35136317 C93.36143219 380.79399043 93.36521126 379.23660336 93.37464955 377.67925872 C93.43668665 366.80755773 92.4163935 357.66813534 87 348.0625 C86.505 347.16660156 86.01 346.27070313 85.5 345.34765625 C84.15266003 343.23892885 82.75565763 341.75043246 81 340 C81 339.34 81 338.68 81 338 C80.41347656 337.72800781 79.82695313 337.45601563 79.22265625 337.17578125 C77.04311667 336.02280864 75.34090291 334.74557711 73.4375 333.1875 C61.04793326 323.70355398 48.02852294 322.93608637 33 324 C28.9138478 324.76992198 25.6361882 326.00805249 22 328 C21.07058594 328.49757813 20.14117188 328.99515625 19.18359375 329.5078125 C7.18121101 336.52961465 -0.26677017 346.8871298 -4.671875 360 C-5.14573829 362.8883096 -5.19993689 365.76407522 -5.3125 368.6875 C-5.8653675 376.9977896 -7.98934988 383.98934988 -14 390 C-19.54039642 394.45640582 -24.59963897 394.67576782 -31.62109375 394.4375 C-37.48394332 393.67837959 -40.8137614 391.5400391 -44.63232422 387.10351562 C-48.93816414 381.16311419 -49.90486942 376.69613178 -49.625 369.4375 C-49.5955127 367.99938965 -49.5955127 367.99938965 -49.56542969 366.53222656 C-49.25889446 357.94637539 -47.68887431 350.13197752 -45 342 C-44.71125 341.09378906 -44.4225 340.18757813 -44.125 339.25390625 C-36.43814118 317.8061975 -19.47726081 300.95117285 0 290 C0.68449219 289.60167969 1.36898438 289.20335937 2.07421875 288.79296875 C12.61520528 283.05373313 24.06484851 280.19829951 36 280 C37.205354 279.95552734 37.205354 279.95552734 38.43505859 279.91015625 C58.46779895 279.17756381 73.46565907 282.3373178 91 292 C91.66 292.33 92.32 292.66 93 293 C93.07042098 277.25641895 93.12314885 261.51288119 93.15543652 245.76918125 C93.17083398 238.45731367 93.19178522 231.14554456 93.22631836 223.83374023 C93.25644101 217.4526787 93.27562658 211.07168857 93.28226548 204.6905579 C93.28613958 201.31907496 93.29672317 197.94795627 93.31719017 194.57650948 C93.39982851 180.38862245 93.28891867 166.85754884 90 153 C89.7799379 152.04430618 89.55987579 151.08861237 89.33314514 150.10395813 C88.81794402 147.94523408 88.24350791 145.81868543 87.625 143.6875 C87.30257324 142.56226929 87.30257324 142.56226929 86.97363281 141.41430664 C82.05383058 124.6923657 73.85603681 108.64339761 63 95 C62.29101562 94.08863281 61.58203125 93.17726563 60.8515625 92.23828125 C48.55003791 76.76425821 34.06887631 64.82245766 17 55 C16.02160156 54.40574219 15.04320312 53.81148437 14.03515625 53.19921875 C-17.89314628 34.66683208 -59.17765769 31.27880278 -94.5 40.25 C-114.56848077 45.66280158 -133.96322973 54.66484197 -150 68 C-150.56557617 68.46164551 -151.13115234 68.92329102 -151.71386719 69.39892578 C-173.35324304 87.09696901 -191.96593904 111.40690182 -199.32421875 138.80859375 C-200 141 -200 141 -200.98828125 142.9296875 C-214.0859157 169.7317966 -207.47259229 209.68066973 -198.25 236.5625 C-194.80776233 246.21409026 -190.21207464 255.34484317 -185.15625 264.24609375 C-180.84421081 272.06674974 -179.22688488 278.80816943 -181.73828125 287.578125 C-184.3630457 294.10223088 -188.57113175 298.96079645 -194.8828125 302.265625 C-202.2446994 304.81919462 -209.47335011 303.08073415 -216.625 300.6875 C-239.92140773 292.93674157 -267.15232232 292.03808058 -291 298 C-292.2375 298.2784375 -293.475 298.556875 -294.75 298.84375 C-314.34738721 303.57978524 -333.1615458 312.53851351 -349 325 C-349.87914062 325.67546875 -350.75828125 326.3509375 -351.6640625 327.046875 C-380.96263292 350.18176922 -398.47128099 381.75430125 -406 418 C-406.28037109 419.26855835 -406.28037109 419.26855835 -406.56640625 420.56274414 C-408.1615409 428.33113595 -408.47952926 436.02318047 -408.5 443.9375 C-408.50501526 444.97006927 -408.50501526 444.97006927 -408.51013184 446.02349854 C-408.5151288 463.39244062 -405.73573691 480.73663297 -398.92553711 496.8046875 C-397.97702998 499.05448337 -397.13834752 501.3277264 -396.3125 503.625 C-394.08902994 509.26019132 -391.04788713 514.42421492 -387.99731445 519.64306641 C-385 524.80403007 -385 524.80403007 -385 527 C-383.5459375 525.87464844 -383.5459375 525.87464844 -382.0625 524.7265625 C-372.70650896 517.55485411 -363.17450108 510.95680063 -353 505 C-352.37770508 504.63390625 -351.75541016 504.2678125 -351.11425781 503.890625 C-342.08758233 498.64841051 -332.89429745 494.92317216 -322.98876953 491.67333984 C-320.93167878 490.97686841 -318.90194011 490.22648834 -316.87109375 489.45703125 C-310.36805347 487.00597023 -304.00169821 485.27591234 -297.1875 483.9375 C-296.33607422 483.76412109 -295.48464844 483.59074219 -294.60742188 483.41210938 C-283.81326468 481.26643152 -273.36540619 480.84085007 -262.37963867 480.86962891 C-259.93987842 480.87499477 -257.50030158 480.86965585 -255.06054688 480.86328125 C-253.48697877 480.86394201 -251.91341077 480.86522314 -250.33984375 480.8671875 C-249.26294533 480.86415115 -249.26294533 480.86415115 -248.16429138 480.86105347 C-243.36569577 480.88294044 -238.75237234 481.32828424 -234 482 C-233.87818359 481.01193359 -233.87818359 481.01193359 -233.75390625 480.00390625 C-232.73953414 475.96218525 -230.90920378 472.59084313 -228.9375 468.9375 C-228.53845459 468.18960205 -228.13940918 467.4417041 -227.72827148 466.67114258 C-224.66558393 461.0206262 -221.30950371 455.689774 -217.62890625 450.41796875 C-216.21926957 448.32548649 -215.05967571 446.28442653 -214 444 C-214.6290625 443.09121094 -215.258125 442.18242188 -215.90625 441.24609375 C-230.40121899 420.07318718 -239.53967098 397.81987378 -246 373 C-246.18336914 372.31856934 -246.36673828 371.63713867 -246.55566406 370.93505859 C-247.99109627 364.68383018 -248.04694108 357.34514802 -245.4375 351.5 C-239.68010006 345.59497442 -234.91461104 340.76987015 -226.3125 340.5 C-218.27347463 340.63725165 -213.8652789 344.07862378 -208.40625 349.64453125 C-205.37178986 353.39301619 -204.48033185 357.4311406 -203.4375 362.0625 C-203.01720383 363.76861888 -202.59532444 365.47434851 -202.171875 367.1796875 C-201.97142578 368.00694336 -201.77097656 368.83419922 -201.56445312 369.68652344 C-198.14433546 383.70427214 -192.08429908 396.00767459 -184.8125 408.3984375 C-184 410 -184 410 -184 412 C-183.28457031 411.45472656 -182.56914062 410.90945313 -181.83203125 410.34765625 C-176.31857008 406.17511448 -170.77198896 402.05301691 -165.125 398.0625 C-164.09632813 397.33160156 -163.06765625 396.60070312 -162.0078125 395.84765625 C-156.68604568 392.57857092 -151.24197051 390.94129122 -145 392 C-137.00348926 394.77278391 -131.83027352 399.11134574 -127.625 406.375 C-125.87895978 413.70836892 -126.96875367 418.93750734 -130.3203125 425.640625 C-133.58605699 430.22785679 -138.24534161 433.23925395 -142.84472656 436.38452148 C-150.90914531 441.91476885 -158.06243706 448.12230318 -165 455 C-165.86238281 455.84949219 -166.72476562 456.69898438 -167.61328125 457.57421875 C-181.70466015 472.24992916 -191.50763819 490.44408744 -198.75 509.3125 C-199.01981689 509.99755615 -199.28963379 510.6826123 -199.56762695 511.38842773 C-204.82104366 525.73610327 -206.65564745 540.39434935 -206.46655273 555.58935547 C-206.43742156 558.13184568 -206.44604934 560.67225474 -206.45898438 563.21484375 C-206.44167777 576.63409131 -204.71582817 589.08892175 -201 602 C-200.15226837 608.91570543 -200.29191392 614.58802429 -204.5078125 620.31640625 C-208.81132745 625.17194275 -213.27575995 628.61404242 -219.90234375 629.30078125 C-226.58984891 629.32660173 -231.46974528 629.2949044 -236.58203125 624.5234375 C-240.44680589 620.40477255 -242.3771529 616.3504777 -244 611 C-244.24363281 610.319375 -244.48726562 609.63875 -244.73828125 608.9375 C-253.7784585 582.23420719 -252.59697313 551.35362027 -248 524 C-292.84717151 524.62821784 -331.29855146 536.4459707 -364 568 C-365.07507813 568.99773437 -365.07507813 568.99773437 -366.171875 570.015625 C-383.8881844 586.88155155 -396.59925914 610.55264745 -403 634 C-403.22993652 634.82564453 -403.45987305 635.65128906 -403.69677734 636.50195312 C-407.87792641 652.16215397 -408.45378456 667.14755538 -407.81567383 683.23291016 C-407.54082754 691.68454475 -407.56356287 699.00431612 -413 706 C-419.10747269 711.7339993 -424.09690458 713.39563376 -432.40625 713.2734375 C-438.32626515 712.64933952 -442.44000673 709.91570511 -446.375 705.5625 C-453.34986188 696.67852958 -452.24024326 685.61171657 -452.25 674.875 C-452.25100708 674.11189514 -452.25201416 673.34879028 -452.25305176 672.56256104 C-452.24225861 660.47645948 -451.58782608 648.84268754 -449 637 C-448.7831958 635.97132813 -448.7831958 635.97132813 -448.56201172 634.921875 C-447.5506906 630.22701551 -446.33390203 625.61265358 -445 621 C-444.71697021 619.99332275 -444.71697021 619.99332275 -444.42822266 618.96630859 C-439.07657373 600.29909092 -430.6032765 581.96121042 -419.21411133 566.21264648 C-416.64274715 562.59140347 -416.64274715 562.59140347 -416.02734375 558.296875 C-417.06480436 555.84696803 -418.22375263 554.08578615 -419.875 552 C-436.01866603 529.67789389 -445.35567977 501.93705734 -450 475 C-450.20625 473.9275 -450.4125 472.855 -450.625 471.75 C-455.21783539 444.19298764 -452.25868918 414.57169328 -444 388 C-443.79036621 387.3095459 -443.58073242 386.6190918 -443.36474609 385.90771484 C-435.89901429 361.7518482 -423.53478689 339.13311054 -407 320 C-406.30648437 319.19691406 -405.61296875 318.39382813 -404.8984375 317.56640625 C-395.11320051 306.48453891 -384.83348629 296.80849284 -373 288 C-372.14664063 287.36320312 -371.29328125 286.72640625 -370.4140625 286.0703125 C-358.33731439 277.36381968 -345.68627241 270.59905509 -331.99047852 264.8425293 C-330.14890235 264.06302735 -328.32172753 263.2497355 -326.49609375 262.43359375 C-322.57265519 260.82476475 -318.63559144 259.59966921 -314.5625 258.4375 C-313.49418945 258.12522461 -313.49418945 258.12522461 -312.40429688 257.80664062 C-288.3914243 250.84923249 -264.80730566 250.60041099 -240 251 C-240.4935498 249.51657104 -240.4935498 249.51657104 -240.99707031 248.00317383 C-243.94408888 238.97580832 -246.18521723 230.07094568 -247.75 220.6875 C-247.95753906 219.51638672 -248.16507813 218.34527344 -248.37890625 217.13867188 C-253.38842555 188.16425864 -252.21950933 158.06127662 -243 130 C-242.79366943 129.34547852 -242.58733887 128.69095703 -242.37475586 128.01660156 C-233.6859535 100.53405371 -219.8249114 75.99798308 -200 55 C-198.80755508 53.60838869 -197.61983872 52.21270788 -196.4375 50.8125 C-192.93354188 46.80454791 -189.07687172 43.41140297 -185 40 C-184.12601562 39.23816406 -183.25203125 38.47632813 -182.3515625 37.69140625 C-165.27044421 23.01446681 -145.50432832 10.84714932 -124 4 C-122.68891714 3.51580186 -121.38044475 3.02449536 -120.07421875 2.52734375 C-81.7482831 -11.97116385 -39.07540009 -11.59380003 0 0 Z " fill="#F1F2F2" transform="translate(519,87)"/>
</svg>
